<svg width="161" height="512" viewBox="0 0 161 512" fill="none" xmlns="http://www.w3.org/2000/svg">
<path fill-rule="evenodd" clip-rule="evenodd" d="M78.3278 0.894409L82.3278 3.89441L81.7549 4.65834L83.8278 8.80424V18.9299L79.6478 23.11L77.7805 33.38L76.3278 40.1592V49.6513L74.9409 51.7317L72.1325 56.4124L70.8278 60.7613V63.5122L64.8278 64.5122V66.6079L67.0134 68.169L73.157 70.4728L69.3622 79.3273L69.9185 87.6719L65.469 90.6382L55.969 94.1382L51.8402 96.8908L47.1945 100.873L37.6162 96.0837L37.2783 94.3944H36.0294L34.6935 96.0643L31.8278 98.9299V101.072L31.1344 105.926L27.4829 108.117L22.7329 110.228L21.075 110.781L21.7433 111.894H28.5298L26.663 119.362L25.2158 121.774L24.5845 125.561L20.918 127.394H17.2988L10.529 139.58L10.5132 139.609L7.16451 145.828L6.12146 149.653L7.1621 150.693L7.7828 154.417L8.63271 158.242L11.1092 161.131L15.344 164.837L16.8278 167.804V174.702L17.5383 175.886L21.0267 173.394H25.8729L27.3043 176.257L27.8196 189.138L28.8737 195.463L27.8963 199.861L29.2467 205.262L30.7624 210.82L31.5395 214.705L33.8087 215.84L35.0276 217.059L37.8698 219.495L43.8278 220.157V223.277L45.9946 223.638L47.8774 227.403L47.3426 233.821L47.6627 236.061L49.4977 237.529L54.6308 242.662L56.2872 250.944L57.2134 256.501L61.0941 262.807L63.6686 270.017L63.6822 270.054L65.3278 274.441V283.613L69.4167 289.52L71.4294 292.74L76.3465 294.081L86.3166 300.378L93.6632 306.675L101.221 316.752L107.328 322.859V333.371L110.571 340.784L112.944 345.057L120.436 355.544L124.649 362.917L125.757 366.795L128.328 379.137V404.3L125.399 407.814L120.54 416.561L117.755 422.129L117.379 425.142L118.689 429.072L120.543 434.17L124.209 438.884L124.779 442.872L125.828 446.544V452.908L124.265 456.555L123.859 459.802L124.57 463.358L129.305 466.371L132.889 469.358L134.307 472.667L135.795 473.559L140.55 474.748L144.515 482.678L148.464 489.096L154.452 499.075L158.952 506.075L160.472 508.608L156.184 511.181L154.704 508.714L150.204 501.714L144.199 491.705L144.184 491.681L140.141 485.111L137.106 479.041L133.861 478.23L130.348 476.122L128.766 472.431L126.35 470.418L120.086 466.431L118.797 459.987L119.391 455.234L120.828 451.881V447.245L119.877 443.917L119.447 440.905L116.113 436.619L113.967 430.717L112.277 425.647L112.9 420.659L116.116 414.228L121.257 404.975L123.328 402.489V379.652L120.899 367.994L120.007 364.872L116.22 358.245L108.711 347.732L106.085 343.005L102.328 334.417V324.93L97.4344 320.037L89.9925 310.114L83.339 304.411L74.3091 298.708L68.2263 297.049L65.2389 292.269L60.3278 285.175V275.348L58.9801 271.754L56.5615 264.982L52.4423 258.288L51.3685 251.845L50.0248 245.127L46.158 241.26L42.993 238.728L42.313 233.968L42.7782 228.385L42.6611 228.151L38.8278 227.512V224.632L35.7859 224.294L31.6279 220.73L30.8469 219.949L27.1162 218.084L25.8932 211.969L24.4089 206.527L22.7593 199.928L23.782 195.326L22.8361 189.651L22.3926 178.563L19.129 180.894H16.2377L14.0586 179.805L11.8278 176.087V168.985L11.3116 167.952L7.54649 164.658L4.02294 160.547L2.87284 155.371L2.49355 153.096L0.53418 151.136L2.49112 143.961L6.13444 137.195L14.3568 122.394H19.7376L20.0711 122.228L20.4399 120.015L21.9927 117.427L22.1259 116.894H18.9123L13.5806 108.008L20.9228 105.561L25.1727 103.672L26.5212 102.863L26.8278 100.717V96.8589L30.9622 92.7245L33.6263 89.3944H41.3773L42.0395 92.7052L46.4612 94.916L48.8155 92.898L53.6866 89.6506L63.1866 86.1506L64.7371 85.1169L64.2934 78.4615L66.4987 73.316L64.6422 72.6198L59.8278 69.181V60.2766L66.0649 59.2371L67.5231 54.3764L70.7147 49.0572L71.3278 48.1375V39.6296L72.8751 32.4087L75.0078 20.6789L78.8278 16.8589V9.98458L75.9008 4.13048L78.3278 0.894409Z" fill="#04172E"/>
</svg>
