<svg width="171" height="522" viewBox="0 0 171 522" fill="none" xmlns="http://www.w3.org/2000/svg">
<mask id="path-1-outside-1_191_3" maskUnits="userSpaceOnUse" x="-0.181641" y="0.0124512" width="171" height="522" fill="black">
<rect fill="white" x="-0.181641" y="0.0124512" width="171" height="522"/>
<path fill-rule="evenodd" clip-rule="evenodd" d="M82.612 6.01245L86.612 9.01245L86.039 9.77638L88.112 13.9223V24.048L83.932 28.228L82.0647 38.4981L80.612 45.2773V54.7694L79.2251 56.8497L76.4167 61.5304L75.112 65.8794V68.6303L69.112 69.6303V71.7259L71.2976 73.2871L77.4412 75.5909L73.6464 84.4453L74.2027 92.7899L69.7532 95.7563L60.2532 99.2563L56.1244 102.009L51.4787 105.991L41.9003 101.202L41.5625 99.5125H40.3136L38.9777 101.182L36.112 104.048V106.19L35.4186 111.044L31.7671 113.235L27.0171 115.346L25.3592 115.899L26.0275 117.012H32.8139L30.9471 124.48L29.5 126.892L28.8687 130.679L25.2022 132.512H21.583L14.8132 144.698L14.7974 144.727L11.4487 150.946L10.4056 154.771L11.4463 155.811L12.067 159.535L12.9169 163.36L15.3934 166.249L19.6282 169.955L21.112 172.922V179.82L21.8225 181.004L25.3108 178.512H30.1571L31.5885 181.375L32.1037 194.256L33.1578 200.581L32.1805 204.979L33.5309 210.38L35.0466 215.938L35.8237 219.823L38.0929 220.958L39.3118 222.177L42.1539 224.613L48.112 225.275V228.395L50.2787 228.756L52.1616 232.521L51.6268 238.939L51.9469 241.179L53.7819 242.647L58.915 247.78L60.5714 256.062L61.4976 261.619L65.3783 267.925L67.9528 275.135L67.9664 275.172L69.612 279.559V288.732L73.7009 294.638L75.7136 297.858L80.6307 299.199L90.6008 305.496L97.9473 311.793L105.505 321.87L111.612 327.977V338.49L114.855 345.902L117.229 350.175L124.72 360.662L128.933 368.035L130.041 371.913L132.612 384.255V409.418L129.683 412.932L124.824 421.679L122.04 427.247L121.663 430.26L122.973 434.19L124.827 439.288L128.493 444.002L129.063 447.99L130.112 451.662V458.026L128.549 461.673L128.143 464.92L128.854 468.476L133.589 471.489L137.173 474.476L138.591 477.785L140.079 478.677L144.834 479.866L148.799 487.796L152.749 494.214L158.736 504.193L163.236 511.193L164.756 513.726L160.468 516.299L158.988 513.832L154.488 506.832L148.483 496.823L148.468 496.799L144.425 490.229L141.39 484.159L138.145 483.348L134.633 481.24L133.051 477.549L130.635 475.536L124.37 471.549L123.081 465.105L123.675 460.352L125.112 456.999V452.363L124.161 449.035L123.731 446.023L120.397 441.737L118.251 435.835L116.561 430.765L117.184 425.777L120.4 419.346L125.541 410.093L127.612 407.607V384.77L125.183 373.112L124.291 369.99L120.504 363.363L112.995 352.85L110.369 348.123L106.612 339.535V330.048L101.719 325.155L94.2766 315.232L87.6232 309.529L78.5933 303.826L72.5105 302.167L69.5231 297.387L64.612 290.293V280.466L63.2643 276.872L60.8457 270.1L56.7264 263.406L55.6526 256.963L54.309 250.245L50.4422 246.378L47.2771 243.846L46.5972 239.086L47.0624 233.503L46.9453 233.269L43.112 232.63V229.75L40.0701 229.412L35.9121 225.848L35.1311 225.067L31.4003 223.202L30.1774 217.087L28.6931 211.645L27.0435 205.046L28.0662 200.444L27.1203 194.769L26.6768 183.681L23.4132 186.012H20.5218L18.3428 184.923L16.112 181.205V174.103L15.5958 173.07L11.8307 169.776L8.30712 165.665L7.15702 160.489L6.77773 158.214L4.81836 156.254L6.7753 149.079L10.4186 142.313L18.641 127.512H24.0218L24.3553 127.346L24.7241 125.133L26.2769 122.545L26.4101 122.012H23.1965L17.8648 113.126L25.207 110.679L29.4569 108.79L30.8054 107.981L31.112 105.835V101.977L35.2463 97.8426L37.9104 94.5125H45.6615L46.3237 97.8232L50.7453 100.034L53.0996 98.0161L57.9708 94.7686L67.4708 91.2686L69.0213 90.235L68.5776 83.5796L70.7828 78.434L68.9264 77.7379L64.112 74.299V65.3946L70.3491 64.3551L71.8073 59.4945L74.9989 54.1752L75.612 53.2555V44.7476L77.1593 37.5268L79.292 25.7969L83.112 21.9769V15.1026L80.185 9.24852L82.612 6.01245Z"/>
</mask>
<path fill-rule="evenodd" clip-rule="evenodd" d="M82.612 6.01245L86.612 9.01245L86.039 9.77638L88.112 13.9223V24.048L83.932 28.228L82.0647 38.4981L80.612 45.2773V54.7694L79.2251 56.8497L76.4167 61.5304L75.112 65.8794V68.6303L69.112 69.6303V71.7259L71.2976 73.2871L77.4412 75.5909L73.6464 84.4453L74.2027 92.7899L69.7532 95.7563L60.2532 99.2563L56.1244 102.009L51.4787 105.991L41.9003 101.202L41.5625 99.5125H40.3136L38.9777 101.182L36.112 104.048V106.19L35.4186 111.044L31.7671 113.235L27.0171 115.346L25.3592 115.899L26.0275 117.012H32.8139L30.9471 124.48L29.5 126.892L28.8687 130.679L25.2022 132.512H21.583L14.8132 144.698L14.7974 144.727L11.4487 150.946L10.4056 154.771L11.4463 155.811L12.067 159.535L12.9169 163.36L15.3934 166.249L19.6282 169.955L21.112 172.922V179.82L21.8225 181.004L25.3108 178.512H30.1571L31.5885 181.375L32.1037 194.256L33.1578 200.581L32.1805 204.979L33.5309 210.38L35.0466 215.938L35.8237 219.823L38.0929 220.958L39.3118 222.177L42.1539 224.613L48.112 225.275V228.395L50.2787 228.756L52.1616 232.521L51.6268 238.939L51.9469 241.179L53.7819 242.647L58.915 247.78L60.5714 256.062L61.4976 261.619L65.3783 267.925L67.9528 275.135L67.9664 275.172L69.612 279.559V288.732L73.7009 294.638L75.7136 297.858L80.6307 299.199L90.6008 305.496L97.9473 311.793L105.505 321.87L111.612 327.977V338.49L114.855 345.902L117.229 350.175L124.72 360.662L128.933 368.035L130.041 371.913L132.612 384.255V409.418L129.683 412.932L124.824 421.679L122.04 427.247L121.663 430.26L122.973 434.19L124.827 439.288L128.493 444.002L129.063 447.99L130.112 451.662V458.026L128.549 461.673L128.143 464.92L128.854 468.476L133.589 471.489L137.173 474.476L138.591 477.785L140.079 478.677L144.834 479.866L148.799 487.796L152.749 494.214L158.736 504.193L163.236 511.193L164.756 513.726L160.468 516.299L158.988 513.832L154.488 506.832L148.483 496.823L148.468 496.799L144.425 490.229L141.39 484.159L138.145 483.348L134.633 481.24L133.051 477.549L130.635 475.536L124.37 471.549L123.081 465.105L123.675 460.352L125.112 456.999V452.363L124.161 449.035L123.731 446.023L120.397 441.737L118.251 435.835L116.561 430.765L117.184 425.777L120.4 419.346L125.541 410.093L127.612 407.607V384.77L125.183 373.112L124.291 369.99L120.504 363.363L112.995 352.85L110.369 348.123L106.612 339.535V330.048L101.719 325.155L94.2766 315.232L87.6232 309.529L78.5933 303.826L72.5105 302.167L69.5231 297.387L64.612 290.293V280.466L63.2643 276.872L60.8457 270.1L56.7264 263.406L55.6526 256.963L54.309 250.245L50.4422 246.378L47.2771 243.846L46.5972 239.086L47.0624 233.503L46.9453 233.269L43.112 232.63V229.75L40.0701 229.412L35.9121 225.848L35.1311 225.067L31.4003 223.202L30.1774 217.087L28.6931 211.645L27.0435 205.046L28.0662 200.444L27.1203 194.769L26.6768 183.681L23.4132 186.012H20.5218L18.3428 184.923L16.112 181.205V174.103L15.5958 173.07L11.8307 169.776L8.30712 165.665L7.15702 160.489L6.77773 158.214L4.81836 156.254L6.7753 149.079L10.4186 142.313L18.641 127.512H24.0218L24.3553 127.346L24.7241 125.133L26.2769 122.545L26.4101 122.012H23.1965L17.8648 113.126L25.207 110.679L29.4569 108.79L30.8054 107.981L31.112 105.835V101.977L35.2463 97.8426L37.9104 94.5125H45.6615L46.3237 97.8232L50.7453 100.034L53.0996 98.0161L57.9708 94.7686L67.4708 91.2686L69.0213 90.235L68.5776 83.5796L70.7828 78.434L68.9264 77.7379L64.112 74.299V65.3946L70.3491 64.3551L71.8073 59.4945L74.9989 54.1752L75.612 53.2555V44.7476L77.1593 37.5268L79.292 25.7969L83.112 21.9769V15.1026L80.185 9.24852L82.612 6.01245Z" fill="#DB2828"/>
<path fill-rule="evenodd" clip-rule="evenodd" d="M82.612 6.01245L86.612 9.01245L86.039 9.77638L88.112 13.9223V24.048L83.932 28.228L82.0647 38.4981L80.612 45.2773V54.7694L79.2251 56.8497L76.4167 61.5304L75.112 65.8794V68.6303L69.112 69.6303V71.7259L71.2976 73.2871L77.4412 75.5909L73.6464 84.4453L74.2027 92.7899L69.7532 95.7563L60.2532 99.2563L56.1244 102.009L51.4787 105.991L41.9003 101.202L41.5625 99.5125H40.3136L38.9777 101.182L36.112 104.048V106.19L35.4186 111.044L31.7671 113.235L27.0171 115.346L25.3592 115.899L26.0275 117.012H32.8139L30.9471 124.48L29.5 126.892L28.8687 130.679L25.2022 132.512H21.583L14.8132 144.698L14.7974 144.727L11.4487 150.946L10.4056 154.771L11.4463 155.811L12.067 159.535L12.9169 163.36L15.3934 166.249L19.6282 169.955L21.112 172.922V179.82L21.8225 181.004L25.3108 178.512H30.1571L31.5885 181.375L32.1037 194.256L33.1578 200.581L32.1805 204.979L33.5309 210.38L35.0466 215.938L35.8237 219.823L38.0929 220.958L39.3118 222.177L42.1539 224.613L48.112 225.275V228.395L50.2787 228.756L52.1616 232.521L51.6268 238.939L51.9469 241.179L53.7819 242.647L58.915 247.78L60.5714 256.062L61.4976 261.619L65.3783 267.925L67.9528 275.135L67.9664 275.172L69.612 279.559V288.732L73.7009 294.638L75.7136 297.858L80.6307 299.199L90.6008 305.496L97.9473 311.793L105.505 321.87L111.612 327.977V338.49L114.855 345.902L117.229 350.175L124.72 360.662L128.933 368.035L130.041 371.913L132.612 384.255V409.418L129.683 412.932L124.824 421.679L122.04 427.247L121.663 430.26L122.973 434.19L124.827 439.288L128.493 444.002L129.063 447.99L130.112 451.662V458.026L128.549 461.673L128.143 464.92L128.854 468.476L133.589 471.489L137.173 474.476L138.591 477.785L140.079 478.677L144.834 479.866L148.799 487.796L152.749 494.214L158.736 504.193L163.236 511.193L164.756 513.726L160.468 516.299L158.988 513.832L154.488 506.832L148.483 496.823L148.468 496.799L144.425 490.229L141.39 484.159L138.145 483.348L134.633 481.24L133.051 477.549L130.635 475.536L124.37 471.549L123.081 465.105L123.675 460.352L125.112 456.999V452.363L124.161 449.035L123.731 446.023L120.397 441.737L118.251 435.835L116.561 430.765L117.184 425.777L120.4 419.346L125.541 410.093L127.612 407.607V384.77L125.183 373.112L124.291 369.99L120.504 363.363L112.995 352.85L110.369 348.123L106.612 339.535V330.048L101.719 325.155L94.2766 315.232L87.6232 309.529L78.5933 303.826L72.5105 302.167L69.5231 297.387L64.612 290.293V280.466L63.2643 276.872L60.8457 270.1L56.7264 263.406L55.6526 256.963L54.309 250.245L50.4422 246.378L47.2771 243.846L46.5972 239.086L47.0624 233.503L46.9453 233.269L43.112 232.63V229.75L40.0701 229.412L35.9121 225.848L35.1311 225.067L31.4003 223.202L30.1774 217.087L28.6931 211.645L27.0435 205.046L28.0662 200.444L27.1203 194.769L26.6768 183.681L23.4132 186.012H20.5218L18.3428 184.923L16.112 181.205V174.103L15.5958 173.07L11.8307 169.776L8.30712 165.665L7.15702 160.489L6.77773 158.214L4.81836 156.254L6.7753 149.079L10.4186 142.313L18.641 127.512H24.0218L24.3553 127.346L24.7241 125.133L26.2769 122.545L26.4101 122.012H23.1965L17.8648 113.126L25.207 110.679L29.4569 108.79L30.8054 107.981L31.112 105.835V101.977L35.2463 97.8426L37.9104 94.5125H45.6615L46.3237 97.8232L50.7453 100.034L53.0996 98.0161L57.9708 94.7686L67.4708 91.2686L69.0213 90.235L68.5776 83.5796L70.7828 78.434L68.9264 77.7379L64.112 74.299V65.3946L70.3491 64.3551L71.8073 59.4945L74.9989 54.1752L75.612 53.2555V44.7476L77.1593 37.5268L79.292 25.7969L83.112 21.9769V15.1026L80.185 9.24852L82.612 6.01245Z" stroke="white" stroke-width="8" mask="url(#path-1-outside-1_191_3)"/>
</svg>
