<svg width="516" height="152" viewBox="0 0 516 152" fill="none" xmlns="http://www.w3.org/2000/svg">
<rect width="21.3307" height="5.42857" transform="matrix(1 0 0 -1 0 152)" fill="white"/>
<rect width="21.3307" height="112.449" transform="matrix(1 0 0 -1 141.189 152)" fill="white"/>
<rect width="21.3307" height="100.041" transform="matrix(1 0 0 -1 283.394 152)" fill="white"/>
<rect width="21.3307" height="145.408" transform="matrix(1 0 0 -1 70.0864 152)" fill="white"/>
<rect width="21.3307" height="86.0816" transform="matrix(1 0 0 -1 211.275 152)" fill="white"/>
<rect width="21.3307" height="92.6735" transform="matrix(1 0 0 -1 353.48 152)" fill="white"/>
<rect width="22.3465" height="51.1837" transform="matrix(1 0 0 -1 23.3623 152)" fill="white"/>
<rect width="21.3307" height="51.1837" transform="matrix(1 0 0 -1 164.551 152)" fill="white"/>
<rect width="21.3307" height="132.224" transform="matrix(1 0 0 -1 306.756 152)" fill="white"/>
<rect width="22.3465" height="152" transform="matrix(1 0 0 -1 93.4487 152)" fill="white"/>
<rect width="22.3465" height="152" transform="matrix(1 0 0 -1 234.638 152)" fill="white"/>
<rect width="21.3307" height="132.224" transform="matrix(1 0 0 -1 376.843 152)" fill="white"/>
<rect width="20.315" height="145.408" transform="matrix(1 0 0 -1 47.7402 152)" fill="white"/>
<rect width="21.3307" height="105.857" transform="matrix(1 0 0 -1 187.914 152)" fill="white"/>
<rect width="21.3307" height="152" transform="matrix(1 0 0 -1 330.118 152)" fill="white"/>
<rect width="21.3307" height="92.6735" transform="matrix(1 0 0 -1 117.827 152)" fill="white"/>
<rect width="22.3465" height="99.2653" transform="matrix(1 0 0 -1 259.016 152)" fill="white"/>
<rect width="22.3465" height="92.6735" transform="matrix(1 0 0 -1 400.205 152)" fill="white"/>
<rect width="21.3307" height="125.633" transform="matrix(1 0 0 -1 424.583 152)" fill="white"/>
<rect width="20.315" height="125.633" transform="matrix(1 0 0 -1 447.945 152)" fill="white"/>
<rect width="22.3465" height="119.041" transform="matrix(1 0 0 -1 470.292 152)" fill="white"/>
<rect width="21.3307" height="145.408" transform="matrix(1 0 0 -1 494.669 152)" fill="white"/>
</svg>
