<svg width="81" height="664" viewBox="0 0 81 664" fill="none" xmlns="http://www.w3.org/2000/svg">
<path fill-rule="evenodd" clip-rule="evenodd" d="M75.7301 2.61747L77.0388 0L80.6165 1.78885L78.9201 5.18175L78.5771 5.45616C78.2023 5.75598 77.5722 6.29232 76.9476 6.88971C76.3217 7.4884 75.8036 8.05215 75.5229 8.45806C75.5193 8.47659 75.469 8.61774 75.431 8.95848C75.3831 9.38736 75.374 9.94108 75.4009 10.5719C75.4544 11.8294 75.6407 13.1857 75.7954 14.0367L75.7981 14.0511L76.3276 17.2289V25.596L74.3276 28.096V31.566L76.3423 33.5807L78.4323 36.3673L77.1187 44.9056L71.6858 46.7165L67.8276 49.1279V83.1964L68.8716 88.4162L67.8089 93.1981L66.3148 110.63L63.8276 127.045V135.821L65.7254 138.857L68.3276 140.158V149.723L67.3276 150.723V153.658L68.2722 154.131L68.8412 166.647L65.2815 178.344L63.774 187.891L58.7183 202.047L57.4567 205.832L58.3276 208.009V210.148L58.877 212.346L57.8276 217.592V226.719L56.1556 231.735L53.3276 236.448V253.922L54.3873 256.042L53.8031 260.715L52.316 268.151L51.8184 276.61L50.3276 286.051V295.519L49.7697 299.982L47.9644 303.593L48.9159 306.923L45.7675 316.893L44.2861 324.3L42.8126 331.177L42.3276 337.966V344.229L42.8276 347.229V350.426L40.5917 354.338L39.8673 355.787L40.346 361.531L39.2654 366.394L36.7579 374.919L34.2641 384.895L32.3276 392.157V392.57L32.4088 392.813L32.4562 392.829L36.6179 391.997L37.341 399.951L36.1126 408.243L43.1044 402.028L47.7121 413.218L49.7451 419.826L50.371 422.016L56.3079 422.511L58.2493 428.335L58.8276 430.648V435.965L56.879 437.264L54.8276 441.367V445.422L55.356 446.479L57.0596 447.501L58.6026 447.81L70.3621 442.665L58.1794 475.152L48.2453 497.504L47.3021 502.22L45.7859 513.844L40.2876 530.339L39.3276 538.019V539.78L48.7356 539.258L46.8276 550.07V556.867L42.1279 566.266L42.1165 566.289L34.6975 581.622L30.2391 596.483L24.2728 615.376L22.2837 626.316L20.6432 632.878L13.9412 640.096L9.15834 648.227L5.69446 658.618L3.65525 663.207L0 661.582L1.96077 657.17L5.4969 646.562L10.714 637.693L17.0121 630.91L18.3715 625.473L20.3825 614.412L26.412 595.32L26.4205 595.292L30.9578 580.167L38.533 564.512L42.8276 555.922V549.719L43.9196 543.531L35.3276 544.009V537.77L36.3676 529.45L41.8693 512.945L43.3532 501.569L44.4099 496.285L54.4759 473.636L63.2931 450.124L59.0526 451.979L55.5957 451.288L52.2992 449.31L50.8276 446.367V440.422L53.7763 434.525L54.8276 433.824V431.141L54.4059 429.454L53.3473 426.278L47.2843 425.773L45.9161 420.983L45.9046 420.944L43.9432 414.571L41.5509 408.761L30.5426 418.546L33.3142 399.838L33.0373 396.792L32.199 396.96L29.2465 395.976L28.3276 393.219V391.632L30.3873 383.909L30.3952 383.879L32.8973 373.87L35.3899 365.395L36.3093 361.257L35.788 355.002L37.0636 352.45L38.8276 349.363V347.56L38.3276 344.56V337.823L38.8427 330.612L40.3665 323.502L40.372 323.475L41.8878 315.896L44.7394 306.866L43.6908 303.196L45.8856 298.806L46.3276 295.27V285.738L47.8368 276.179L48.3392 267.638L49.8521 260.074L50.268 256.747L49.3276 254.867V235.34L52.4997 230.054L53.8276 226.07V217.196L54.7783 212.443L54.3276 210.641V208.78L53.1986 205.957L54.937 200.742L59.8813 186.898L61.3738 177.445L64.8141 166.141L64.383 156.658L63.3276 156.13V149.066L64.3276 148.066V142.63L62.9299 141.932L59.8276 136.968V126.744L62.3405 110.159L63.8463 92.5908L64.7837 88.3727L63.8276 83.5925V45.3944H66.254L69.9694 43.0723L73.5366 41.8833L74.223 37.4216L73.3129 36.2082L70.3276 33.2229V26.6929L72.3276 24.1929V17.5599L71.8573 14.7377C71.6792 13.7546 71.4673 12.2188 71.4045 10.742C71.373 10.0019 71.3764 9.22441 71.4557 8.51475C71.5271 7.8751 71.6867 7.00033 72.1636 6.28503C72.6911 5.49374 73.4909 4.66095 74.1827 3.99914C74.7377 3.46835 75.2942 2.98083 75.7301 2.61747Z" fill="#04172E"/>
</svg>
