<svg width="83" height="665" viewBox="0 0 83 665" fill="none" xmlns="http://www.w3.org/2000/svg">
<path fill-rule="evenodd" clip-rule="evenodd" d="M76.5017 3.40637L77.7639 0.881958L82.236 3.11803L80.4904 6.60915L80.0617 6.95216C79.6974 7.2436 79.0785 7.77028 78.4655 8.3566C77.882 8.91471 77.4167 9.4206 77.1553 9.77917C77.1423 9.83382 77.1199 9.9419 77.1001 10.1195C77.0562 10.5133 77.0464 11.039 77.0727 11.6562C77.125 12.8854 77.3079 14.2183 77.4596 15.0528L77.4629 15.0709L77.9999 18.2931V26.8769L75.9999 29.3769V32.4645L77.8933 34.3579L80.1307 37.341L78.7387 46.389L73.0726 48.2776L69.4999 50.5106V84.2524L70.5548 89.5272L69.4765 94.3796L67.9838 111.794L65.4999 128.188V136.783L67.247 139.578L69.9999 140.955V151.036L68.9999 152.036V154.455L69.9306 154.92L70.5168 167.816L66.9422 179.562L65.4328 189.121L60.3632 203.316L59.1612 206.922L59.9999 209.019V211.192L60.5616 213.439L59.4999 218.748V227.906L57.7848 233.051L54.9999 237.692V254.91L56.0744 257.059L55.4692 261.901L53.9854 269.32L53.4884 277.769L51.9999 287.196V296.656L51.4274 301.235L49.6708 304.748L50.6102 308.036L47.4247 318.123L45.948 325.507L44.481 332.353L43.9999 339.089V345.293L44.4999 348.293V351.664L42.2049 355.68L41.5494 356.991L42.0228 362.671L40.9221 367.625L38.4128 376.156L35.9205 386.125L33.9999 393.328V393.35L38.2377 392.503L39.0166 401.071L37.9811 408.061L44.4708 402.292L49.3554 414.155L51.3967 420.789L51.9291 422.652L57.8503 423.146L59.9019 429.301L60.4999 431.692V437.338L58.439 438.712L56.4999 442.59V446.41L56.9104 447.231L58.4148 448.133L59.7186 448.394L72.418 442.838L59.8146 476.447L49.897 498.762L48.9679 503.407L47.4477 515.062L41.9498 531.556L40.9999 539.156V540.357L50.5099 539.829L48.4999 551.219V558.09L43.7503 567.589L43.7359 567.618L36.3371 582.909L31.8892 597.736L25.9313 616.602L23.945 627.527L22.2693 634.23L15.5169 641.502L10.7883 649.541L7.33341 659.905L5.28439 664.515L0.715332 662.485L2.66626 658.095L6.21146 647.46L11.4829 638.498L17.7304 631.77L19.0547 626.473L21.0684 615.398L27.1053 596.282L27.1159 596.247L31.6626 581.091L39.2565 565.396L43.4999 556.91V550.781L44.4899 545.171L35.9999 545.643V538.844L37.0499 530.444L42.552 513.938L44.0318 502.593L45.1028 497.238L55.1852 474.553L63.5817 452.162L60.2811 453.606L56.5849 452.867L53.0894 450.769L51.4999 447.59V441.41L54.5607 435.288L55.4999 434.662V432.308L55.0978 430.699L54.1495 427.854L48.0707 427.348L46.6031 422.211L44.6443 415.845L42.5289 410.708L31.0186 420.939L33.9831 400.929L33.762 398.497L33.3391 398.582L30.0234 397.476L28.9999 394.406V392.672L31.0745 384.894L31.0843 384.856L33.587 374.844L36.0777 366.375L36.9769 362.329L36.4503 356.009L37.7948 353.32L39.4999 350.336V348.707L38.9999 345.707V338.911L39.5187 331.647L41.0484 324.51L41.0554 324.476L42.575 316.877L45.3895 307.964L44.3289 304.252L46.5723 299.765L46.9999 296.344V286.804L48.5114 277.231L49.0144 268.68L50.5305 261.099L50.9253 257.941L49.9999 256.09V236.308L53.2149 230.949L54.4999 227.094V218.252L55.4382 213.561L54.9999 211.808V209.981L53.8386 207.078L55.6366 201.684L60.5669 187.879L62.0576 178.438L65.4829 167.184L65.0691 158.08L63.9999 157.545V149.964L64.9999 148.964V144.045L63.7527 143.421L60.4999 138.217V127.812L63.0159 111.206L64.5232 93.6204L65.4449 89.4728L64.4999 84.7475V46H67.2829L70.9271 43.7223L74.2611 42.611L74.8691 38.6589L74.1065 37.6421L70.9999 34.5355V27.623L72.9999 25.123V18.7069L72.5368 15.9282C72.3559 14.9285 72.1411 13.3717 72.0772 11.8688C72.0451 11.1151 72.0479 10.3096 72.131 9.56485C72.2043 8.9076 72.3737 7.93237 72.9198 7.11324C73.4792 6.27413 74.3122 5.41023 75.0094 4.74339C75.5395 4.23634 76.0708 3.76829 76.5017 3.40637Z" fill="#04172E" stroke="white" stroke-width="0.5"/>
</svg>
