<svg width="822" height="166" viewBox="0 0 822 166" fill="none" xmlns="http://www.w3.org/2000/svg">
<rect width="22" height="83.8342" transform="matrix(1 0 0 -1 0 166)" fill="white"/>
<rect width="22" height="20.8543" transform="matrix(1 0 0 -1 200 166)" fill="white"/>
<rect width="22" height="37.1206" transform="matrix(1 0 0 -1 25 166)" fill="white"/>
<rect width="22" height="37.1206" transform="matrix(1 0 0 -1 225 166)" fill="white"/>
<rect width="22" height="98.0151" transform="matrix(1 0 0 -1 50 166)" fill="white"/>
<rect width="22" height="76.7437" transform="matrix(1 0 0 -1 250 166)" fill="white"/>
<rect width="22" height="83.8342" transform="matrix(1 0 0 -1 400 166)" fill="white"/>
<rect width="22" height="147.648" transform="matrix(1 0 0 -1 550 166)" fill="white"/>
<rect width="22" height="126.377" transform="matrix(1 0 0 -1 300 166)" fill="white"/>
<rect width="22" height="166" transform="matrix(1 0 0 -1 450 166)" fill="white"/>
<rect width="22" height="83.8342" transform="matrix(1 0 0 -1 600 166)" fill="white"/>
<rect width="22" height="37.1206" transform="matrix(1 0 0 -1 350 166)" fill="white"/>
<rect width="22" height="76.7437" transform="matrix(1 0 0 -1 500 166)" fill="white"/>
<rect width="22" height="126.377" transform="matrix(1 0 0 -1 650 166)" fill="white"/>
<rect width="22" height="83.8342" transform="matrix(1 0 0 -1 700 166)" fill="white"/>
<rect width="22" height="90.9246" transform="matrix(1 0 0 -1 750 166)" fill="white"/>
<rect width="22" height="76.7437" transform="matrix(1 0 0 -1 75 166)" fill="white"/>
<rect width="22" height="112.196" transform="matrix(1 0 0 -1 275 166)" fill="white"/>
<rect width="22" height="90.9246" transform="matrix(1 0 0 -1 425 166)" fill="white"/>
<rect width="22" height="83.8342" transform="matrix(1 0 0 -1 575 166)" fill="white"/>
<rect width="22" height="53.3869" transform="matrix(1 0 0 -1 325 166)" fill="white"/>
<rect width="22" height="20.8543" transform="matrix(1 0 0 -1 475 166)" fill="white"/>
<rect width="22" height="112.196" transform="matrix(1 0 0 -1 625 166)" fill="white"/>
<rect width="22" height="69.6533" transform="matrix(1 0 0 -1 375 166)" fill="white"/>
<rect width="22" height="98.0151" transform="matrix(1 0 0 -1 525 166)" fill="white"/>
<rect width="22" height="119.286" transform="matrix(1 0 0 -1 675 166)" fill="white"/>
<rect width="22" height="90.9246" transform="matrix(1 0 0 -1 725 166)" fill="white"/>
<rect width="22" height="98.0151" transform="matrix(1 0 0 -1 775 166)" fill="white"/>
<rect width="22" height="1.66834" transform="matrix(1 0 0 -1 800 166)" fill="white"/>
<rect width="22" height="105.106" transform="matrix(1 0 0 -1 100 166)" fill="white"/>
<rect width="22" height="98.0151" transform="matrix(1 0 0 -1 125 166)" fill="white"/>
<rect width="22" height="53.3869" transform="matrix(1 0 0 -1 150 166)" fill="white"/>
<rect width="22" height="83.8342" transform="matrix(1 0 0 -1 175 166)" fill="white"/>
</svg>
