<svg width="89" height="672" viewBox="0 0 89 672" fill="none" xmlns="http://www.w3.org/2000/svg">
<mask id="path-1-outside-1_29_57" maskUnits="userSpaceOnUse" x="0" y="-1" width="89" height="673" fill="black">
<rect fill="white" y="-1" width="89" height="673"/>
<path fill-rule="evenodd" clip-rule="evenodd" d="M79.7301 6.61747L81.0388 4L84.6165 5.78885L82.9201 9.18175L82.5771 9.45616C82.2023 9.75598 81.5722 10.2923 80.9476 10.8897C80.3217 11.4884 79.8036 12.0521 79.5229 12.4581C79.5193 12.4766 79.469 12.6177 79.431 12.9585C79.3831 13.3874 79.374 13.9411 79.4009 14.5719C79.4544 15.8294 79.6407 17.1857 79.7954 18.0367L79.7981 18.0511L80.3276 21.2289V29.596L78.3276 32.096V35.566L80.3423 37.5807L82.4323 40.3673L81.1187 48.9056L75.6858 50.7165L71.8276 53.1279V87.1964L72.8716 92.4162L71.8089 97.1981L70.3148 114.63L67.8276 131.045V139.821L69.7254 142.857L72.3276 144.158V153.723L71.3276 154.723V157.658L72.2722 158.131L72.8412 170.647L69.2815 182.344L67.774 191.891L62.7183 206.047L61.4567 209.832L62.3276 212.009V214.148L62.877 216.346L61.8276 221.592V230.719L60.1556 235.735L57.3276 240.448V257.922L58.3873 260.042L57.8031 264.715L56.316 272.151L55.8184 280.61L54.3276 290.051V299.519L53.7697 303.982L51.9644 307.593L52.9159 310.923L49.7675 320.893L48.2861 328.3L46.8126 335.177L46.3276 341.966V348.229L46.8276 351.229V354.426L44.5917 358.338L43.8673 359.787L44.346 365.531L43.2654 370.394L40.7579 378.919L38.2641 388.895L36.3276 396.157V396.57L36.4088 396.813L36.4562 396.829L40.6179 395.997L41.341 403.951L40.1126 412.243L47.1044 406.028L51.7121 417.218L53.7451 423.826L54.371 426.016L60.3079 426.511L62.2493 432.335L62.8276 434.648V439.965L60.879 441.264L58.8276 445.367V449.422L59.356 450.479L61.0596 451.501L62.6026 451.81L74.3621 446.665L62.1794 479.152L52.2453 501.504L51.3021 506.22L49.7859 517.844L44.2876 534.339L43.3276 542.019V543.78L52.7356 543.258L50.8276 554.07V560.867L46.1279 570.266L46.1165 570.289L38.6975 585.622L34.2391 600.483L28.2728 619.376L26.2837 630.316L24.6432 636.878L17.9412 644.096L13.1583 652.227L9.69446 662.618L7.65525 667.207L4 665.582L5.96077 661.17L9.4969 650.562L14.714 641.693L21.0121 634.91L22.3715 629.473L24.3825 618.412L30.412 599.32L30.4205 599.292L34.9578 584.167L42.533 568.512L46.8276 559.922V553.719L47.9196 547.531L39.3276 548.009V541.77L40.3676 533.45L45.8693 516.945L47.3532 505.569L48.4099 500.285L58.4759 477.636L67.2931 454.124L63.0526 455.979L59.5957 455.288L56.2992 453.31L54.8276 450.367V444.422L57.7763 438.525L58.8276 437.824V435.141L58.4059 433.454L57.3473 430.278L51.2843 429.773L49.9161 424.983L49.9046 424.944L47.9432 418.571L45.5509 412.761L34.5426 422.546L37.3142 403.838L37.0373 400.792L36.199 400.96L33.2465 399.976L32.3276 397.219V395.632L34.3873 387.909L34.3952 387.879L36.8973 377.87L39.3899 369.395L40.3093 365.257L39.788 359.002L41.0636 356.45L42.8276 353.363V351.56L42.3276 348.56V341.823L42.8427 334.612L44.3665 327.502L44.372 327.475L45.8878 319.896L48.7394 310.866L47.6908 307.196L49.8856 302.806L50.3276 299.27V289.738L51.8368 280.179L52.3392 271.638L53.8521 264.074L54.268 260.747L53.3276 258.867V239.34L56.4997 234.054L57.8276 230.07V221.196L58.7783 216.443L58.3276 214.641V212.78L57.1986 209.957L58.937 204.742L63.8813 190.898L65.3738 181.445L68.8141 170.141L68.383 160.658L67.3276 160.13V153.066L68.3276 152.066V146.63L66.9299 145.932L63.8276 140.968V130.744L66.3405 114.159L67.8463 96.5908L68.7837 92.3727L67.8276 87.5925V49.3944H70.254L73.9694 47.0723L77.5366 45.8833L78.223 41.4216L77.3129 40.2082L74.3276 37.2229V30.6929L76.3276 28.1929V21.5599L75.8573 18.7377C75.6792 17.7546 75.4673 16.2188 75.4045 14.742C75.373 14.0019 75.3764 13.2244 75.4557 12.5148C75.5271 11.8751 75.6867 11.0003 76.1636 10.285C76.6911 9.49374 77.4909 8.66095 78.1827 7.99914C78.7377 7.46835 79.2942 6.98083 79.7301 6.61747Z"/>
</mask>
<path fill-rule="evenodd" clip-rule="evenodd" d="M79.7301 6.61747L81.0388 4L84.6165 5.78885L82.9201 9.18175L82.5771 9.45616C82.2023 9.75598 81.5722 10.2923 80.9476 10.8897C80.3217 11.4884 79.8036 12.0521 79.5229 12.4581C79.5193 12.4766 79.469 12.6177 79.431 12.9585C79.3831 13.3874 79.374 13.9411 79.4009 14.5719C79.4544 15.8294 79.6407 17.1857 79.7954 18.0367L79.7981 18.0511L80.3276 21.2289V29.596L78.3276 32.096V35.566L80.3423 37.5807L82.4323 40.3673L81.1187 48.9056L75.6858 50.7165L71.8276 53.1279V87.1964L72.8716 92.4162L71.8089 97.1981L70.3148 114.63L67.8276 131.045V139.821L69.7254 142.857L72.3276 144.158V153.723L71.3276 154.723V157.658L72.2722 158.131L72.8412 170.647L69.2815 182.344L67.774 191.891L62.7183 206.047L61.4567 209.832L62.3276 212.009V214.148L62.877 216.346L61.8276 221.592V230.719L60.1556 235.735L57.3276 240.448V257.922L58.3873 260.042L57.8031 264.715L56.316 272.151L55.8184 280.61L54.3276 290.051V299.519L53.7697 303.982L51.9644 307.593L52.9159 310.923L49.7675 320.893L48.2861 328.3L46.8126 335.177L46.3276 341.966V348.229L46.8276 351.229V354.426L44.5917 358.338L43.8673 359.787L44.346 365.531L43.2654 370.394L40.7579 378.919L38.2641 388.895L36.3276 396.157V396.57L36.4088 396.813L36.4562 396.829L40.6179 395.997L41.341 403.951L40.1126 412.243L47.1044 406.028L51.7121 417.218L53.7451 423.826L54.371 426.016L60.3079 426.511L62.2493 432.335L62.8276 434.648V439.965L60.879 441.264L58.8276 445.367V449.422L59.356 450.479L61.0596 451.501L62.6026 451.81L74.3621 446.665L62.1794 479.152L52.2453 501.504L51.3021 506.22L49.7859 517.844L44.2876 534.339L43.3276 542.019V543.78L52.7356 543.258L50.8276 554.07V560.867L46.1279 570.266L46.1165 570.289L38.6975 585.622L34.2391 600.483L28.2728 619.376L26.2837 630.316L24.6432 636.878L17.9412 644.096L13.1583 652.227L9.69446 662.618L7.65525 667.207L4 665.582L5.96077 661.17L9.4969 650.562L14.714 641.693L21.0121 634.91L22.3715 629.473L24.3825 618.412L30.412 599.32L30.4205 599.292L34.9578 584.167L42.533 568.512L46.8276 559.922V553.719L47.9196 547.531L39.3276 548.009V541.77L40.3676 533.45L45.8693 516.945L47.3532 505.569L48.4099 500.285L58.4759 477.636L67.2931 454.124L63.0526 455.979L59.5957 455.288L56.2992 453.31L54.8276 450.367V444.422L57.7763 438.525L58.8276 437.824V435.141L58.4059 433.454L57.3473 430.278L51.2843 429.773L49.9161 424.983L49.9046 424.944L47.9432 418.571L45.5509 412.761L34.5426 422.546L37.3142 403.838L37.0373 400.792L36.199 400.96L33.2465 399.976L32.3276 397.219V395.632L34.3873 387.909L34.3952 387.879L36.8973 377.87L39.3899 369.395L40.3093 365.257L39.788 359.002L41.0636 356.45L42.8276 353.363V351.56L42.3276 348.56V341.823L42.8427 334.612L44.3665 327.502L44.372 327.475L45.8878 319.896L48.7394 310.866L47.6908 307.196L49.8856 302.806L50.3276 299.27V289.738L51.8368 280.179L52.3392 271.638L53.8521 264.074L54.268 260.747L53.3276 258.867V239.34L56.4997 234.054L57.8276 230.07V221.196L58.7783 216.443L58.3276 214.641V212.78L57.1986 209.957L58.937 204.742L63.8813 190.898L65.3738 181.445L68.8141 170.141L68.383 160.658L67.3276 160.13V153.066L68.3276 152.066V146.63L66.9299 145.932L63.8276 140.968V130.744L66.3405 114.159L67.8463 96.5908L68.7837 92.3727L67.8276 87.5925V49.3944H70.254L73.9694 47.0723L77.5366 45.8833L78.223 41.4216L77.3129 40.2082L74.3276 37.2229V30.6929L76.3276 28.1929V21.5599L75.8573 18.7377C75.6792 17.7546 75.4673 16.2188 75.4045 14.742C75.373 14.0019 75.3764 13.2244 75.4557 12.5148C75.5271 11.8751 75.6867 11.0003 76.1636 10.285C76.6911 9.49374 77.4909 8.66095 78.1827 7.99914C78.7377 7.46835 79.2942 6.98083 79.7301 6.61747Z" fill="#DB2828"/>
<path fill-rule="evenodd" clip-rule="evenodd" d="M79.7301 6.61747L81.0388 4L84.6165 5.78885L82.9201 9.18175L82.5771 9.45616C82.2023 9.75598 81.5722 10.2923 80.9476 10.8897C80.3217 11.4884 79.8036 12.0521 79.5229 12.4581C79.5193 12.4766 79.469 12.6177 79.431 12.9585C79.3831 13.3874 79.374 13.9411 79.4009 14.5719C79.4544 15.8294 79.6407 17.1857 79.7954 18.0367L79.7981 18.0511L80.3276 21.2289V29.596L78.3276 32.096V35.566L80.3423 37.5807L82.4323 40.3673L81.1187 48.9056L75.6858 50.7165L71.8276 53.1279V87.1964L72.8716 92.4162L71.8089 97.1981L70.3148 114.63L67.8276 131.045V139.821L69.7254 142.857L72.3276 144.158V153.723L71.3276 154.723V157.658L72.2722 158.131L72.8412 170.647L69.2815 182.344L67.774 191.891L62.7183 206.047L61.4567 209.832L62.3276 212.009V214.148L62.877 216.346L61.8276 221.592V230.719L60.1556 235.735L57.3276 240.448V257.922L58.3873 260.042L57.8031 264.715L56.316 272.151L55.8184 280.61L54.3276 290.051V299.519L53.7697 303.982L51.9644 307.593L52.9159 310.923L49.7675 320.893L48.2861 328.3L46.8126 335.177L46.3276 341.966V348.229L46.8276 351.229V354.426L44.5917 358.338L43.8673 359.787L44.346 365.531L43.2654 370.394L40.7579 378.919L38.2641 388.895L36.3276 396.157V396.57L36.4088 396.813L36.4562 396.829L40.6179 395.997L41.341 403.951L40.1126 412.243L47.1044 406.028L51.7121 417.218L53.7451 423.826L54.371 426.016L60.3079 426.511L62.2493 432.335L62.8276 434.648V439.965L60.879 441.264L58.8276 445.367V449.422L59.356 450.479L61.0596 451.501L62.6026 451.81L74.3621 446.665L62.1794 479.152L52.2453 501.504L51.3021 506.22L49.7859 517.844L44.2876 534.339L43.3276 542.019V543.78L52.7356 543.258L50.8276 554.07V560.867L46.1279 570.266L46.1165 570.289L38.6975 585.622L34.2391 600.483L28.2728 619.376L26.2837 630.316L24.6432 636.878L17.9412 644.096L13.1583 652.227L9.69446 662.618L7.65525 667.207L4 665.582L5.96077 661.17L9.4969 650.562L14.714 641.693L21.0121 634.91L22.3715 629.473L24.3825 618.412L30.412 599.32L30.4205 599.292L34.9578 584.167L42.533 568.512L46.8276 559.922V553.719L47.9196 547.531L39.3276 548.009V541.77L40.3676 533.45L45.8693 516.945L47.3532 505.569L48.4099 500.285L58.4759 477.636L67.2931 454.124L63.0526 455.979L59.5957 455.288L56.2992 453.31L54.8276 450.367V444.422L57.7763 438.525L58.8276 437.824V435.141L58.4059 433.454L57.3473 430.278L51.2843 429.773L49.9161 424.983L49.9046 424.944L47.9432 418.571L45.5509 412.761L34.5426 422.546L37.3142 403.838L37.0373 400.792L36.199 400.96L33.2465 399.976L32.3276 397.219V395.632L34.3873 387.909L34.3952 387.879L36.8973 377.87L39.3899 369.395L40.3093 365.257L39.788 359.002L41.0636 356.45L42.8276 353.363V351.56L42.3276 348.56V341.823L42.8427 334.612L44.3665 327.502L44.372 327.475L45.8878 319.896L48.7394 310.866L47.6908 307.196L49.8856 302.806L50.3276 299.27V289.738L51.8368 280.179L52.3392 271.638L53.8521 264.074L54.268 260.747L53.3276 258.867V239.34L56.4997 234.054L57.8276 230.07V221.196L58.7783 216.443L58.3276 214.641V212.78L57.1986 209.957L58.937 204.742L63.8813 190.898L65.3738 181.445L68.8141 170.141L68.383 160.658L67.3276 160.13V153.066L68.3276 152.066V146.63L66.9299 145.932L63.8276 140.968V130.744L66.3405 114.159L67.8463 96.5908L68.7837 92.3727L67.8276 87.5925V49.3944H70.254L73.9694 47.0723L77.5366 45.8833L78.223 41.4216L77.3129 40.2082L74.3276 37.2229V30.6929L76.3276 28.1929V21.5599L75.8573 18.7377C75.6792 17.7546 75.4673 16.2188 75.4045 14.742C75.373 14.0019 75.3764 13.2244 75.4557 12.5148C75.5271 11.8751 75.6867 11.0003 76.1636 10.285C76.6911 9.49374 77.4909 8.66095 78.1827 7.99914C78.7377 7.46835 79.2942 6.98083 79.7301 6.61747Z" stroke="white" stroke-width="8" stroke-linejoin="round" mask="url(#path-1-outside-1_29_57)"/>
</svg>
