<svg width="724" height="151" viewBox="0 0 724 151" fill="none" xmlns="http://www.w3.org/2000/svg">
<rect width="22" height="68" transform="matrix(1 0 0 -1 0 151)" fill="white"/>
<rect width="22" height="68" transform="matrix(1 0 0 -1 156 151)" fill="white"/>
<rect width="22" height="24" transform="matrix(1 0 0 -1 260 151)" fill="white"/>
<rect width="22" height="24" transform="matrix(1 0 0 -1 78 151)" fill="white"/>
<rect width="22" height="51" transform="matrix(1 0 0 -1 208 151)" fill="white"/>
<rect width="22" height="60" transform="matrix(1 0 0 -1 338 151)" fill="white"/>
<rect width="22" height="85" transform="matrix(1 0 0 -1 26 151)" fill="white"/>
<rect width="22" height="24" transform="matrix(1 0 0 -1 286 151)" fill="white"/>
<rect width="22" height="24" transform="matrix(1 0 0 -1 104 151)" fill="white"/>
<rect width="22" height="51" transform="matrix(1 0 0 -1 364 151)" fill="white"/>
<rect width="22" height="43" transform="matrix(1 0 0 -1 52 151)" fill="white"/>
<rect width="22" height="43" transform="matrix(1 0 0 -1 182 151)" fill="white"/>
<rect width="22" height="60" transform="matrix(1 0 0 -1 312 151)" fill="white"/>
<rect width="22" height="24" transform="matrix(1 0 0 -1 130 151)" fill="white"/>
<rect width="22" height="109" transform="matrix(1 0 0 -1 234 151)" fill="white"/>
<rect width="22" height="68" transform="matrix(1 0 0 -1 390 151)" fill="white"/>
<rect width="22" height="93" transform="matrix(1 0 0 -1 416 151)" fill="white"/>
<rect width="22" height="24" transform="matrix(1 0 0 -1 442 151)" fill="white"/>
<rect width="22" height="142" transform="matrix(1 0 0 -1 468 151)" fill="white"/>
<rect width="22" height="93" transform="matrix(1 0 0 -1 494 151)" fill="white"/>
<rect width="22" height="76" transform="matrix(1 0 0 -1 520 151)" fill="white"/>
<rect width="22" height="134" transform="matrix(1 0 0 -1 546 151)" fill="white"/>
<rect width="22" height="85" transform="matrix(1 0 0 -1 572 151)" fill="white"/>
<rect width="22" height="151" transform="matrix(1 0 0 -1 598 151)" fill="white"/>
<rect width="22" height="68" transform="matrix(1 0 0 -1 624 151)" fill="white"/>
<rect width="22" height="68" transform="matrix(1 0 0 -1 650 151)" fill="white"/>
<rect width="22" height="68" transform="matrix(1 0 0 -1 676 151)" fill="white"/>
<rect width="22" height="110" transform="matrix(1 0 0 -1 702 151)" fill="white"/>
</svg>
