<svg width="230" height="744" viewBox="0 0 230 744" fill="none" xmlns="http://www.w3.org/2000/svg">
<path fill-rule="evenodd" clip-rule="evenodd" d="M212.231 303.737L209.093 301.873L208.313 303.188V305.014L205.843 310.838L205.313 317.978V322.06L207.611 325.285L213.447 326.76L216.68 327.148L219.334 328.638L221.292 325.15L217.946 323.272L214.179 322.819L210.015 321.767L209.313 320.781V318.126L209.783 311.793L212.313 305.827V304.286L212.533 303.915L212.313 303.785V303.737H212.231Z" fill="#04172E"/>
<path fill-rule="evenodd" clip-rule="evenodd" d="M229.602 2.78885L228.251 5.49132L223.997 7.0865L221.389 10.1288L219.313 13.0354V26.5317L220.813 30.5318V38.014L219.313 50.514V65.4942L218.313 75.4942V100.603L216.168 110.793L213.813 113.619V115.688L212.259 120.867L210.813 128.58V135.481L209.813 146.981V153.28L208.439 156.714L205.813 158.465V161.922L207.747 165.789L205.141 168.394L206.455 169.708L210.813 171.576V183.06L209.813 189.06V219.219L208.519 223.101L204.313 226.373V235.219L202.192 241.583L199.148 249.192L195.144 257.701L191.51 266.526L185.313 272.723V280.333L186.796 280.704L189.763 278.16L193.105 276.824L200.411 278.152L202.017 284.04L208.386 287.47L211.313 294.494V299.922L212.274 301.845L218.224 304.394H220.344L225.313 307.234V311.592L223.738 319.467L221.813 324.28V328.422L224.731 334.259L228.313 335.453V344.28L225.166 352.147L221.377 361.348L216.244 363.915L210.778 373.355L204.854 376.811L200.215 386.552L195.798 406.182L194.684 422.894H190.553L186.52 426.351L182.518 423.95L177.374 418.119L176.236 422.955L172.741 432.94L169.263 448.841L163.783 471.756L158.303 514.096L158.296 514.151L154.762 549L145.497 565.894H136.133L131.455 562.296C130.403 566.127 129.04 571.037 128.71 572.027C128.609 572.331 128.307 573.029 127.932 573.869C127.531 574.767 126.986 575.964 126.339 577.36C125.044 580.154 123.334 583.761 121.546 587.401C119.759 591.038 117.884 594.726 116.26 597.672C115.449 599.143 114.689 600.453 114.024 601.487C113.411 602.441 112.738 603.394 112.093 603.931C111.961 604.041 111.809 604.168 111.64 604.309C109.908 605.755 106.357 608.718 102.803 611.526C100.855 613.066 98.8865 614.574 97.2047 615.768C96.3647 616.364 95.5776 616.894 94.8887 617.315C94.2348 617.714 93.549 618.091 92.9455 618.292C90.8515 618.99 89.2356 618.599 87.8982 618.177C87.7118 618.118 87.5336 618.06 87.3611 618.004C86.3204 617.665 85.4873 617.394 84.313 617.394C84.3629 617.394 84.1794 617.395 83.6759 617.66C83.2142 617.903 82.6439 618.283 81.9735 618.795C80.6333 619.821 79.0897 621.226 77.4962 622.726C77.0488 623.147 76.5959 623.577 76.1445 624.006C75.023 625.071 73.9111 626.126 72.9173 627.012C72.2153 627.638 71.533 628.215 70.9087 628.677C70.3241 629.11 69.6364 629.561 68.9455 629.792C67.0616 630.42 65.4518 630.889 64.4826 631.154L60.006 636.974L53.6022 649.289L41.5085 674.484L34.9474 682.357L33.687 681.097L32.671 684.145L21.626 707.239L21.6173 707.257L4.626 743.739L1 742.05L18.0043 705.541L28.955 682.644L31.939 673.692L34.6786 676.432L38.1175 672.305L50.0238 647.5L56.6201 634.815L62.1523 627.623L62.8279 627.454C63.4401 627.301 65.3242 626.783 67.6805 625.997C67.6779 625.998 67.6985 625.991 67.745 625.969C67.7907 625.947 67.8521 625.914 67.9303 625.868C68.0889 625.774 68.2874 625.641 68.5278 625.463C69.011 625.105 69.5904 624.619 70.2556 624.026C71.2001 623.185 72.2387 622.198 73.3395 621.153C73.8011 620.715 74.2737 620.266 74.7548 619.813C76.3488 618.313 78.024 616.781 79.5431 615.618C80.3024 615.038 81.072 614.511 81.8115 614.121C82.5091 613.754 83.3881 613.394 84.313 613.394C86.1678 613.394 87.6162 613.873 88.6621 614.219C88.8179 614.27 88.9648 614.319 89.1028 614.362C90.1404 614.69 90.7745 614.799 91.6805 614.497C91.827 614.448 92.1881 614.277 92.8037 613.901C93.3844 613.547 94.0894 613.074 94.8901 612.505C96.4896 611.371 98.3961 609.911 100.323 608.388C103.832 605.615 107.343 602.685 109.078 601.237C109.247 601.096 109.399 600.969 109.533 600.858C109.533 600.858 109.535 600.856 109.545 600.847C109.56 600.832 109.589 600.803 109.633 600.754C109.701 600.678 109.787 600.574 109.893 600.436C110.105 600.159 110.361 599.789 110.659 599.325C111.254 598.399 111.966 597.177 112.757 595.742C114.336 592.875 116.18 589.251 117.956 585.637C119.729 582.028 121.426 578.448 122.709 575.678C123.351 574.293 123.888 573.115 124.278 572.24C124.474 571.802 124.63 571.444 124.744 571.178C124.801 571.044 124.845 570.938 124.877 570.86C124.906 570.787 124.917 570.758 124.917 570.758L124.916 570.762C125.293 569.631 127.371 562.081 128.383 558.368L129.168 555.491L137.493 561.894H143.129L150.864 547.789L154.326 513.665L159.843 471.033L165.359 447.967L165.368 447.929L168.885 431.848L172.39 421.834L175.252 409.67L185.108 420.839L186.106 421.438L189.073 418.894H190.942L191.828 405.607L196.411 385.237L201.772 373.978L207.848 370.434L213.382 360.874L218.249 358.44L221.456 350.652L221.464 350.633L224.313 343.509V338.336L221.895 337.53L217.813 329.367V323.509L219.888 318.322L221.313 311.196V309.555L219.282 308.394H217.402L209.352 304.944L207.313 300.867V295.294L205.24 290.319L198.609 286.749L197.215 281.637L193.521 280.965L191.863 281.628L187.83 285.085L181.313 283.456V271.066L188.116 264.263L191.482 256.087L195.478 247.597L198.434 240.206L200.313 234.57V224.416L205.107 220.688L205.813 218.57V188.729L206.813 182.729V174.213L204.171 173.081L200.759 169.669L200.243 168.894H198.813V164.894H202.827L201.813 162.867V156.324L205.187 154.075L205.813 152.509V146.808L206.813 135.308V128.209L208.367 119.921L209.813 115.101V112.17L212.458 108.996L214.313 100.186V75.2947L215.313 65.2946V50.2749L216.813 37.7749V31.2571L215.313 27.2571V11.7535L218.237 7.65999L221.629 3.70235L225.375 2.29753L226.024 1L229.602 2.78885Z" fill="#04172E"/>
<path fill-rule="evenodd" clip-rule="evenodd" d="M212.231 303.737L209.093 301.873L208.313 303.188V305.014L205.843 310.838L205.313 317.978V322.06L207.611 325.285L213.447 326.76L216.68 327.148L219.334 328.638L221.292 325.15L217.946 323.272L214.179 322.819L210.015 321.767L209.313 320.781V318.126L209.783 311.793L212.313 305.827V304.286L212.533 303.915L212.313 303.785V303.737H212.231Z" fill="#04172E"/>
<path fill-rule="evenodd" clip-rule="evenodd" d="M229.602 2.78885L228.251 5.49132L223.997 7.0865L221.389 10.1288L219.313 13.0354V26.5317L220.813 30.5318V38.014L219.313 50.514V65.4942L218.313 75.4942V100.603L216.168 110.793L213.813 113.619V115.688L212.259 120.867L210.813 128.58V135.481L209.813 146.981V153.28L208.439 156.714L205.813 158.465V161.922L207.747 165.789L205.141 168.394L206.455 169.708L210.813 171.576V183.06L209.813 189.06V219.219L208.519 223.101L204.313 226.373V235.219L202.192 241.583L199.148 249.192L195.144 257.701L191.51 266.526L185.313 272.723V280.333L186.796 280.704L189.763 278.16L193.105 276.824L200.411 278.152L202.017 284.04L208.386 287.47L211.313 294.494V299.922L212.274 301.845L218.224 304.394H220.344L225.313 307.234V311.592L223.738 319.467L221.813 324.28V328.422L224.731 334.259L228.313 335.453V344.28L225.166 352.147L221.377 361.348L216.244 363.915L210.778 373.355L204.854 376.811L200.215 386.552L195.798 406.182L194.684 422.894H190.553L186.52 426.351L182.518 423.95L177.374 418.119L176.236 422.955L172.741 432.94L169.263 448.841L163.783 471.756L158.303 514.096L158.296 514.151L154.762 549L145.497 565.894H136.133L131.455 562.296C130.403 566.127 129.04 571.037 128.71 572.027C128.609 572.331 128.307 573.029 127.932 573.869C127.531 574.767 126.986 575.964 126.339 577.36C125.044 580.154 123.334 583.761 121.546 587.401C119.759 591.038 117.884 594.726 116.26 597.672C115.449 599.143 114.689 600.453 114.024 601.487C113.411 602.441 112.738 603.394 112.093 603.931C111.961 604.041 111.809 604.168 111.64 604.309C109.908 605.755 106.357 608.718 102.803 611.526C100.855 613.066 98.8865 614.574 97.2047 615.768C96.3647 616.364 95.5776 616.894 94.8887 617.315C94.2348 617.714 93.549 618.091 92.9455 618.292C90.8515 618.99 89.2356 618.599 87.8982 618.177C87.7118 618.118 87.5336 618.06 87.3611 618.004C86.3204 617.665 85.4873 617.394 84.313 617.394C84.3629 617.394 84.1794 617.395 83.6759 617.66C83.2142 617.903 82.6439 618.283 81.9735 618.795C80.6333 619.821 79.0897 621.226 77.4962 622.726C77.0488 623.147 76.5959 623.577 76.1445 624.006C75.023 625.071 73.9111 626.126 72.9173 627.012C72.2153 627.638 71.533 628.215 70.9087 628.677C70.3241 629.11 69.6364 629.561 68.9455 629.792C67.0616 630.42 65.4518 630.889 64.4826 631.154L60.006 636.974L53.6022 649.289L41.5085 674.484L34.9474 682.357L33.687 681.097L32.671 684.145L21.626 707.239L21.6173 707.257L4.626 743.739L1 742.05L18.0043 705.541L28.955 682.644L31.939 673.692L34.6786 676.432L38.1175 672.305L50.0238 647.5L56.6201 634.815L62.1523 627.623L62.8279 627.454C63.4401 627.301 65.3242 626.783 67.6805 625.997C67.6779 625.998 67.6985 625.991 67.745 625.969C67.7907 625.947 67.8521 625.914 67.9303 625.868C68.0889 625.774 68.2874 625.641 68.5278 625.463C69.011 625.105 69.5904 624.619 70.2556 624.026C71.2001 623.185 72.2387 622.198 73.3395 621.153C73.8011 620.715 74.2737 620.266 74.7548 619.813C76.3488 618.313 78.024 616.781 79.5431 615.618C80.3024 615.038 81.072 614.511 81.8115 614.121C82.5091 613.754 83.3881 613.394 84.313 613.394C86.1678 613.394 87.6162 613.873 88.6621 614.219C88.8179 614.27 88.9648 614.319 89.1028 614.362C90.1404 614.69 90.7745 614.799 91.6805 614.497C91.827 614.448 92.1881 614.277 92.8037 613.901C93.3844 613.547 94.0894 613.074 94.8901 612.505C96.4896 611.371 98.3961 609.911 100.323 608.388C103.832 605.615 107.343 602.685 109.078 601.237C109.247 601.096 109.399 600.969 109.533 600.858C109.533 600.858 109.535 600.856 109.545 600.847C109.56 600.832 109.589 600.803 109.633 600.754C109.701 600.678 109.787 600.574 109.893 600.436C110.105 600.159 110.361 599.789 110.659 599.325C111.254 598.399 111.966 597.177 112.757 595.742C114.336 592.875 116.18 589.251 117.956 585.637C119.729 582.028 121.426 578.448 122.709 575.678C123.351 574.293 123.888 573.115 124.278 572.24C124.474 571.802 124.63 571.444 124.744 571.178C124.801 571.044 124.845 570.938 124.877 570.86C124.906 570.787 124.917 570.758 124.917 570.758L124.916 570.762C125.293 569.631 127.371 562.081 128.383 558.368L129.168 555.491L137.493 561.894H143.129L150.864 547.789L154.326 513.665L159.843 471.033L165.359 447.967L165.368 447.929L168.885 431.848L172.39 421.834L175.252 409.67L185.108 420.839L186.106 421.438L189.073 418.894H190.942L191.828 405.607L196.411 385.237L201.772 373.978L207.848 370.434L213.382 360.874L218.249 358.44L221.456 350.652L221.464 350.633L224.313 343.509V338.336L221.895 337.53L217.813 329.367V323.509L219.888 318.322L221.313 311.196V309.555L219.282 308.394H217.402L209.352 304.944L207.313 300.867V295.294L205.24 290.319L198.609 286.749L197.215 281.637L193.521 280.965L191.863 281.628L187.83 285.085L181.313 283.456V271.066L188.116 264.263L191.482 256.087L195.478 247.597L198.434 240.206L200.313 234.57V224.416L205.107 220.688L205.813 218.57V188.729L206.813 182.729V174.213L204.171 173.081L200.759 169.669L200.243 168.894H198.813V164.894H202.827L201.813 162.867V156.324L205.187 154.075L205.813 152.509V146.808L206.813 135.308V128.209L208.367 119.921L209.813 115.101V112.17L212.458 108.996L214.313 100.186V75.2947L215.313 65.2946V50.2749L216.813 37.7749V31.2571L215.313 27.2571V11.7535L218.237 7.65999L221.629 3.70235L225.375 2.29753L226.024 1L229.602 2.78885Z" fill="#04172E"/>
<path d="M212.231 303.737L212.104 303.952C212.142 303.974 212.186 303.987 212.231 303.987V303.737ZM209.093 301.873L209.221 301.658C209.164 301.625 209.096 301.615 209.032 301.631C208.967 301.647 208.912 301.689 208.878 301.746L209.093 301.873ZM208.313 303.188L208.098 303.06C208.075 303.099 208.063 303.143 208.063 303.188H208.313ZM208.313 305.014L208.543 305.112C208.556 305.081 208.563 305.048 208.563 305.014H208.313ZM205.843 310.838L205.613 310.741C205.602 310.766 205.596 310.793 205.594 310.82L205.843 310.838ZM205.313 317.978L205.064 317.96C205.063 317.966 205.063 317.972 205.063 317.978H205.313ZM205.313 322.06H205.063C205.063 322.112 205.079 322.163 205.109 322.205L205.313 322.06ZM207.611 325.285L207.407 325.43C207.441 325.478 207.492 325.513 207.549 325.527L207.611 325.285ZM213.447 326.76L213.386 327.002C213.396 327.005 213.407 327.007 213.417 327.008L213.447 326.76ZM216.68 327.148L216.802 326.931C216.774 326.914 216.742 326.904 216.71 326.9L216.68 327.148ZM219.334 328.638L219.212 328.856C219.269 328.889 219.338 328.897 219.402 328.879C219.465 328.861 219.519 328.819 219.552 328.761L219.334 328.638ZM221.292 325.15L221.51 325.273C221.578 325.152 221.535 325 221.414 324.932L221.292 325.15ZM217.946 323.272L218.068 323.054C218.04 323.038 218.008 323.028 217.976 323.024L217.946 323.272ZM214.179 322.819L214.118 323.061C214.128 323.064 214.138 323.066 214.149 323.067L214.179 322.819ZM210.015 321.767L209.812 321.912C209.846 321.96 209.897 321.995 209.954 322.009L210.015 321.767ZM209.313 320.781H209.063C209.063 320.833 209.079 320.884 209.109 320.926L209.313 320.781ZM209.313 318.126L209.064 318.108C209.063 318.114 209.063 318.12 209.063 318.126H209.313ZM209.783 311.793L209.553 311.695C209.542 311.72 209.536 311.747 209.534 311.774L209.783 311.793ZM212.313 305.827L212.543 305.925C212.556 305.894 212.563 305.861 212.563 305.827H212.313ZM212.313 304.286L212.098 304.158C212.075 304.197 212.063 304.241 212.063 304.286H212.313ZM212.533 303.915L212.748 304.043C212.782 303.986 212.791 303.918 212.775 303.854C212.759 303.789 212.717 303.734 212.66 303.701L212.533 303.915ZM212.313 303.785H212.063C212.063 303.873 212.11 303.955 212.185 304L212.313 303.785ZM212.313 303.737H212.563C212.563 303.598 212.451 303.487 212.313 303.487V303.737ZM229.602 2.78885L229.825 2.90066C229.887 2.77716 229.837 2.627 229.714 2.56525L229.602 2.78885ZM228.251 5.49132L228.338 5.7254C228.397 5.70325 228.446 5.65956 228.474 5.60312L228.251 5.49132ZM223.997 7.0865L223.909 6.85242C223.87 6.86722 223.834 6.89178 223.807 6.9238L223.997 7.0865ZM221.389 10.1288L221.199 9.9661C221.195 9.97169 221.19 9.97749 221.186 9.98349L221.389 10.1288ZM219.313 13.0354L219.11 12.8901C219.079 12.9325 219.063 12.9833 219.063 13.0354H219.313ZM219.313 26.5317H219.063C219.063 26.5617 219.068 26.5914 219.079 26.6195L219.313 26.5317ZM220.813 30.5318H221.063C221.063 30.5018 221.058 30.472 221.047 30.444L220.813 30.5318ZM220.813 38.014L221.061 38.0438C221.062 38.0339 221.063 38.024 221.063 38.014H220.813ZM219.313 50.514L219.065 50.4842C219.064 50.4941 219.063 50.504 219.063 50.514H219.313ZM219.313 65.4942L219.562 65.5191C219.563 65.5108 219.563 65.5025 219.563 65.4942H219.313ZM218.313 75.4942L218.064 75.4694C218.063 75.4776 218.063 75.4859 218.063 75.4942H218.313ZM218.313 100.603L218.558 100.654C218.561 100.637 218.563 100.62 218.563 100.603H218.313ZM216.168 110.793L216.36 110.953C216.386 110.922 216.404 110.884 216.412 110.844L216.168 110.793ZM213.813 113.619L213.621 113.458C213.584 113.503 213.563 113.56 213.563 113.619H213.813ZM213.813 115.688L214.052 115.76C214.059 115.736 214.063 115.712 214.063 115.688H213.813ZM212.259 120.867L212.02 120.796C212.017 120.804 212.015 120.813 212.013 120.821L212.259 120.867ZM210.813 128.58L210.567 128.534C210.564 128.549 210.563 128.565 210.563 128.58H210.813ZM210.813 135.481L211.062 135.503C211.063 135.496 211.063 135.488 211.063 135.481H210.813ZM209.813 146.981L209.564 146.96C209.563 146.967 209.563 146.974 209.563 146.981H209.813ZM209.813 153.28L210.045 153.372C210.057 153.343 210.063 153.311 210.063 153.28H209.813ZM208.439 156.714L208.578 156.922C208.62 156.894 208.653 156.854 208.671 156.807L208.439 156.714ZM205.813 158.465L205.674 158.257C205.605 158.303 205.563 158.381 205.563 158.465H205.813ZM205.813 161.922H205.563C205.563 161.961 205.572 161.999 205.589 162.034L205.813 161.922ZM207.747 165.789L207.923 165.966C207.999 165.89 208.018 165.774 207.97 165.678L207.747 165.789ZM205.141 168.394L204.965 168.218C204.867 168.315 204.867 168.474 204.965 168.571L205.141 168.394ZM206.455 169.708L206.278 169.885C206.301 169.907 206.327 169.925 206.356 169.938L206.455 169.708ZM210.813 171.576H211.063C211.063 171.476 211.003 171.385 210.911 171.346L210.813 171.576ZM210.813 183.06L211.06 183.101C211.062 183.087 211.063 183.074 211.063 183.06H210.813ZM209.813 189.06L209.566 189.019C209.564 189.032 209.563 189.046 209.563 189.06H209.813ZM209.813 219.219L210.05 219.298C210.059 219.273 210.063 219.246 210.063 219.219H209.813ZM208.519 223.101L208.672 223.299C208.711 223.268 208.74 223.227 208.756 223.18L208.519 223.101ZM204.313 226.373L204.16 226.175C204.099 226.223 204.063 226.295 204.063 226.373H204.313ZM204.313 235.219L204.55 235.298C204.559 235.273 204.563 235.246 204.563 235.219H204.313ZM202.192 241.583L202.424 241.675C202.426 241.671 202.427 241.666 202.429 241.662L202.192 241.583ZM199.148 249.192L199.374 249.299C199.376 249.294 199.378 249.29 199.38 249.285L199.148 249.192ZM195.144 257.701L194.917 257.595L194.912 257.606L195.144 257.701ZM191.51 266.526L191.687 266.703C191.71 266.679 191.729 266.652 191.741 266.621L191.51 266.526ZM185.313 272.723L185.136 272.546C185.089 272.593 185.063 272.657 185.063 272.723H185.313ZM185.313 280.333H185.063C185.063 280.448 185.141 280.548 185.252 280.575L185.313 280.333ZM186.796 280.704L186.735 280.946C186.814 280.966 186.897 280.946 186.958 280.893L186.796 280.704ZM189.763 278.16L189.67 277.928C189.645 277.939 189.621 277.953 189.6 277.971L189.763 278.16ZM193.105 276.824L193.149 276.578C193.103 276.569 193.055 276.574 193.012 276.592L193.105 276.824ZM200.411 278.152L200.652 278.086C200.627 277.993 200.55 277.923 200.456 277.906L200.411 278.152ZM202.017 284.04L201.776 284.106C201.794 284.172 201.838 284.228 201.898 284.26L202.017 284.04ZM208.386 287.47L208.617 287.374C208.595 287.321 208.555 287.277 208.505 287.25L208.386 287.47ZM211.313 294.494H211.563C211.563 294.461 211.556 294.429 211.544 294.398L211.313 294.494ZM211.313 299.922H211.063C211.063 299.961 211.072 299.999 211.089 300.034L211.313 299.922ZM212.274 301.845L212.051 301.957C212.077 302.009 212.121 302.051 212.176 302.075L212.274 301.845ZM218.224 304.394L218.125 304.624C218.156 304.638 218.19 304.644 218.224 304.644V304.394ZM220.344 304.394L220.468 304.177C220.43 304.156 220.388 304.144 220.344 304.144V304.394ZM225.313 307.234H225.563C225.563 307.144 225.515 307.061 225.437 307.017L225.313 307.234ZM225.313 311.592L225.558 311.641C225.561 311.625 225.563 311.609 225.563 311.592H225.313ZM223.738 319.467L223.97 319.56C223.976 319.545 223.98 319.531 223.983 319.516L223.738 319.467ZM221.813 324.28L221.581 324.187C221.569 324.216 221.563 324.248 221.563 324.28H221.813ZM221.813 328.422H221.563C221.563 328.461 221.572 328.499 221.589 328.534L221.813 328.422ZM224.731 334.259L224.508 334.371C224.537 334.43 224.589 334.475 224.652 334.496L224.731 334.259ZM228.313 335.453H228.563C228.563 335.345 228.494 335.25 228.392 335.216L228.313 335.453ZM228.313 344.28L228.545 344.372C228.557 344.343 228.563 344.311 228.563 344.28H228.313ZM225.166 352.147L225.397 352.242L225.398 352.239L225.166 352.147ZM221.377 361.348L221.489 361.572C221.543 361.545 221.585 361.499 221.608 361.444L221.377 361.348ZM216.244 363.915L216.132 363.692C216.088 363.713 216.052 363.748 216.027 363.79L216.244 363.915ZM210.778 373.355L210.904 373.571C210.942 373.549 210.973 373.518 210.995 373.48L210.778 373.355ZM204.854 376.811L204.728 376.595C204.684 376.621 204.649 376.658 204.628 376.704L204.854 376.811ZM200.215 386.552L199.989 386.445C199.981 386.461 199.975 386.479 199.971 386.497L200.215 386.552ZM195.798 406.182L195.554 406.127C195.552 406.14 195.55 406.153 195.549 406.166L195.798 406.182ZM194.684 422.894V423.144C194.816 423.144 194.925 423.042 194.934 422.911L194.684 422.894ZM190.553 422.894V422.644C190.493 422.644 190.435 422.666 190.39 422.705L190.553 422.894ZM186.52 426.351L186.391 426.565C186.484 426.621 186.601 426.611 186.683 426.541L186.52 426.351ZM182.518 423.95L182.331 424.115C182.348 424.135 182.368 424.151 182.39 424.164L182.518 423.95ZM177.374 418.119L177.561 417.954C177.499 417.884 177.403 417.854 177.313 417.877C177.222 417.9 177.152 417.971 177.13 418.062L177.374 418.119ZM176.236 422.955L176.472 423.038C176.474 423.03 176.477 423.021 176.479 423.013L176.236 422.955ZM172.741 432.94L172.505 432.858C172.502 432.867 172.499 432.877 172.497 432.887L172.741 432.94ZM169.263 448.841L169.506 448.899L169.507 448.894L169.263 448.841ZM163.783 471.756L163.54 471.698C163.538 471.707 163.536 471.716 163.535 471.724L163.783 471.756ZM158.303 514.096L158.055 514.064L158.054 514.068L158.303 514.096ZM158.296 514.151L158.048 514.122L158.048 514.126L158.296 514.151ZM154.762 549L154.981 549.12C154.997 549.091 155.007 549.059 155.011 549.025L154.762 549ZM145.497 565.894V566.144C145.589 566.144 145.673 566.095 145.716 566.015L145.497 565.894ZM136.133 565.894L135.98 566.093C136.024 566.126 136.078 566.144 136.133 566.144V565.894ZM131.455 562.296L131.608 562.098C131.542 562.047 131.455 562.033 131.376 562.059C131.297 562.086 131.236 562.15 131.214 562.23L131.455 562.296ZM128.71 572.027L128.473 571.948L128.473 571.948L128.71 572.027ZM127.932 573.869L127.703 573.767L127.703 573.767L127.932 573.869ZM126.339 577.36L126.112 577.255L126.112 577.255L126.339 577.36ZM121.546 587.401L121.321 587.291L121.321 587.291L121.546 587.401ZM116.26 597.672L116.041 597.552L116.041 597.552L116.26 597.672ZM114.024 601.487L113.814 601.352L113.814 601.352L114.024 601.487ZM112.093 603.931L111.933 603.739L111.933 603.739L112.093 603.931ZM111.64 604.309L111.801 604.501L111.801 604.501L111.64 604.309ZM102.803 611.526L102.648 611.33L102.648 611.33L102.803 611.526ZM97.2047 615.768L97.06 615.564L97.06 615.564L97.2047 615.768ZM94.8887 617.315L95.019 617.528L95.019 617.528L94.8887 617.315ZM92.9455 618.292L92.8664 618.055L92.8664 618.055L92.9455 618.292ZM87.8982 618.177L87.8229 618.415L87.823 618.415L87.8982 618.177ZM87.3611 618.004L87.2838 618.241L87.2838 618.241L87.3611 618.004ZM84.313 617.144C84.1749 617.144 84.063 617.256 84.063 617.394C84.063 617.532 84.1749 617.644 84.313 617.644V617.144ZM83.6759 617.66L83.7924 617.881L83.7924 617.881L83.6759 617.66ZM81.9735 618.795L81.8216 618.597L81.8216 618.597L81.9735 618.795ZM77.4962 622.726L77.6676 622.908L77.6676 622.908L77.4962 622.726ZM76.1445 624.006L75.9724 623.824L75.9723 623.824L76.1445 624.006ZM72.9173 627.012L72.7509 626.826L72.7509 626.826L72.9173 627.012ZM70.9087 628.677L70.7599 628.476L70.7599 628.476L70.9087 628.677ZM68.9455 629.792L68.8664 629.555L68.8664 629.555L68.9455 629.792ZM64.4826 631.154L64.4167 630.913C64.3642 630.927 64.3177 630.958 64.2845 631.002L64.4826 631.154ZM60.006 636.974L59.8078 636.821C59.7989 636.833 59.791 636.845 59.7842 636.858L60.006 636.974ZM53.6022 649.289L53.3803 649.173L53.3768 649.181L53.6022 649.289ZM41.5085 674.484L41.7006 674.644C41.7138 674.628 41.725 674.611 41.7339 674.592L41.5085 674.484ZM34.9474 682.357L34.7706 682.534C34.8203 682.584 34.8886 682.61 34.9587 682.607C35.0289 682.604 35.0945 682.571 35.1395 682.517L34.9474 682.357ZM33.687 681.097L33.8638 680.92C33.8025 680.859 33.7139 680.834 33.6296 680.854C33.5453 680.873 33.4773 680.936 33.4499 681.018L33.687 681.097ZM32.671 684.145L32.8965 684.253C32.901 684.244 32.9049 684.234 32.9082 684.224L32.671 684.145ZM21.626 707.239L21.4005 707.131L21.3999 707.132L21.626 707.239ZM21.6173 707.257L21.3912 707.151L21.3906 707.152L21.6173 707.257ZM4.626 743.739L4.52045 743.965C4.58055 743.993 4.64932 743.996 4.71161 743.974C4.77391 743.951 4.82463 743.904 4.85263 743.844L4.626 743.739ZM1 742.05L0.773375 741.944C0.715081 742.07 0.769287 742.218 0.894448 742.277L1 742.05ZM18.0043 705.541L17.7788 705.433L17.7777 705.435L18.0043 705.541ZM28.955 682.644L29.1806 682.752C29.185 682.742 29.1889 682.733 29.1922 682.723L28.955 682.644ZM31.939 673.692L32.1157 673.515C32.0545 673.454 31.9659 673.429 31.8815 673.449C31.7972 673.469 31.7292 673.531 31.7018 673.613L31.939 673.692ZM34.6786 676.432L34.5018 676.608C34.5515 676.658 34.6197 676.685 34.6899 676.681C34.7601 676.678 34.8257 676.646 34.8706 676.592L34.6786 676.432ZM38.1175 672.305L38.3095 672.465C38.3227 672.449 38.3339 672.432 38.3429 672.413L38.1175 672.305ZM50.0238 647.5L49.8019 647.385L49.7984 647.392L50.0238 647.5ZM56.6201 634.815L56.4219 634.663C56.4129 634.674 56.405 634.687 56.3983 634.7L56.6201 634.815ZM62.1523 627.623L62.0917 627.381C62.037 627.394 61.9886 627.426 61.9542 627.471L62.1523 627.623ZM62.8279 627.454L62.7673 627.212L62.7673 627.212L62.8279 627.454ZM67.6805 625.997L67.7596 626.234C67.8901 626.191 67.9609 626.05 67.9182 625.919C67.8754 625.789 67.7351 625.717 67.6042 625.759L67.6805 625.997ZM67.745 625.969L67.6366 625.743L67.6366 625.743L67.745 625.969ZM67.9303 625.868L68.0576 626.083L68.0576 626.083L67.9303 625.868ZM68.5278 625.463L68.6766 625.664L68.6766 625.664L68.5278 625.463ZM70.2556 624.026L70.422 624.213L70.422 624.213L70.2556 624.026ZM73.3395 621.153L73.1674 620.972L73.1674 620.972L73.3395 621.153ZM74.7548 619.813L74.5834 619.631L74.5834 619.631L74.7548 619.813ZM79.5431 615.618L79.695 615.817L79.695 615.817L79.5431 615.618ZM81.8115 614.121L81.6949 613.9L81.6949 613.9L81.8115 614.121ZM88.6621 614.219L88.5837 614.456L88.5838 614.456L88.6621 614.219ZM89.1028 614.362L89.0275 614.601L89.0275 614.601L89.1028 614.362ZM91.6805 614.497L91.7596 614.734L91.7597 614.734L91.6805 614.497ZM92.8037 613.901L92.6734 613.688L92.6734 613.688L92.8037 613.901ZM94.8901 612.505L95.0347 612.709L95.0347 612.709L94.8901 612.505ZM100.323 608.388L100.478 608.584L100.478 608.584L100.323 608.388ZM109.078 601.237L108.918 601.045L108.918 601.045L109.078 601.237ZM109.533 600.858L109.693 601.05L109.694 601.049L109.533 600.858ZM109.545 600.847L109.718 601.027L109.718 601.027L109.545 600.847ZM109.633 600.754L109.819 600.921L109.819 600.921L109.633 600.754ZM109.893 600.436L110.091 600.588L110.091 600.588L109.893 600.436ZM110.659 599.325L110.869 599.46L110.869 599.46L110.659 599.325ZM112.757 595.742L112.976 595.862L112.976 595.862L112.757 595.742ZM117.956 585.637L118.18 585.748L118.18 585.748L117.956 585.637ZM122.709 575.678L122.936 575.784L122.936 575.784L122.709 575.678ZM124.278 572.24L124.507 572.342L124.507 572.342L124.278 572.24ZM124.744 571.178L124.514 571.08L124.514 571.08L124.744 571.178ZM124.877 570.86L124.645 570.766L124.645 570.766L124.877 570.86ZM124.917 570.758L125.154 570.836C125.197 570.706 125.128 570.566 124.999 570.522C124.87 570.477 124.729 570.544 124.682 570.672L124.917 570.758ZM124.916 570.762L124.678 570.684C124.635 570.815 124.706 570.956 124.837 570.999C124.968 571.043 125.109 570.972 125.153 570.841L124.916 570.762ZM128.383 558.368L128.142 558.302L128.142 558.302L128.383 558.368ZM129.168 555.491L129.321 555.292C129.255 555.242 129.168 555.227 129.089 555.254C129.01 555.28 128.949 555.344 128.927 555.425L129.168 555.491ZM137.493 561.894L137.341 562.093C137.385 562.126 137.438 562.144 137.493 562.144V561.894ZM143.129 561.894V562.144C143.22 562.144 143.304 562.095 143.348 562.015L143.129 561.894ZM150.864 547.789L151.083 547.909C151.099 547.879 151.11 547.847 151.113 547.814L150.864 547.789ZM154.326 513.665L154.078 513.633L154.077 513.64L154.326 513.665ZM159.843 471.033L159.6 470.974C159.598 470.983 159.596 470.992 159.595 471L159.843 471.033ZM165.359 447.967L165.602 448.025L165.603 448.023L165.359 447.967ZM165.368 447.929L165.612 447.985L165.612 447.983L165.368 447.929ZM168.885 431.848L168.649 431.766C168.646 431.775 168.643 431.785 168.641 431.795L168.885 431.848ZM172.39 421.834L172.626 421.916C172.629 421.908 172.632 421.899 172.634 421.891L172.39 421.834ZM175.252 409.67L175.44 409.504C175.378 409.434 175.282 409.404 175.192 409.427C175.101 409.45 175.031 409.521 175.009 409.612L175.252 409.67ZM185.108 420.839L184.92 421.004C184.937 421.023 184.957 421.04 184.979 421.053L185.108 420.839ZM186.106 421.438L185.977 421.652C186.07 421.708 186.187 421.698 186.269 421.628L186.106 421.438ZM189.073 418.894V418.644C189.013 418.644 188.956 418.666 188.91 418.705L189.073 418.894ZM190.942 418.894V419.144C191.074 419.144 191.183 419.042 191.191 418.911L190.942 418.894ZM191.828 405.607L191.584 405.552C191.581 405.564 191.579 405.577 191.578 405.59L191.828 405.607ZM196.411 385.237L196.185 385.129C196.177 385.146 196.171 385.164 196.167 385.182L196.411 385.237ZM201.772 373.978L201.647 373.762C201.603 373.787 201.568 373.825 201.547 373.87L201.772 373.978ZM207.848 370.434L207.974 370.65C208.011 370.628 208.042 370.597 208.064 370.559L207.848 370.434ZM213.382 360.874L213.271 360.65C213.227 360.672 213.191 360.706 213.166 360.748L213.382 360.874ZM218.249 358.44L218.361 358.664C218.415 358.637 218.457 358.591 218.48 358.536L218.249 358.44ZM221.456 350.652L221.687 350.747L221.688 350.746L221.456 350.652ZM221.464 350.633L221.695 350.727L221.696 350.726L221.464 350.633ZM224.313 343.509L224.545 343.602C224.557 343.573 224.563 343.541 224.563 343.509H224.313ZM224.313 338.336H224.563C224.563 338.228 224.494 338.133 224.392 338.099L224.313 338.336ZM221.895 337.53L221.671 337.642C221.701 337.701 221.753 337.746 221.816 337.767L221.895 337.53ZM217.813 329.367H217.563C217.563 329.405 217.572 329.444 217.589 329.478L217.813 329.367ZM217.813 323.509L217.581 323.416C217.569 323.446 217.563 323.477 217.563 323.509H217.813ZM219.888 318.322L220.12 318.415C220.126 318.401 220.13 318.386 220.133 318.371L219.888 318.322ZM221.313 311.196L221.558 311.245C221.561 311.229 221.563 311.213 221.563 311.196H221.313ZM221.313 309.555H221.563C221.563 309.465 221.515 309.383 221.437 309.338L221.313 309.555ZM219.282 308.394L219.406 308.177C219.368 308.156 219.325 308.144 219.282 308.144V308.394ZM217.402 308.394L217.304 308.624C217.335 308.638 217.369 308.644 217.402 308.644V308.394ZM209.352 304.944L209.128 305.056C209.155 305.109 209.199 305.151 209.253 305.174L209.352 304.944ZM207.313 300.867H207.063C207.063 300.905 207.072 300.944 207.089 300.978L207.313 300.867ZM207.313 295.294H207.563C207.563 295.261 207.556 295.229 207.544 295.198L207.313 295.294ZM205.24 290.319L205.471 290.223C205.449 290.17 205.409 290.126 205.358 290.099L205.24 290.319ZM198.609 286.749L198.368 286.814C198.386 286.88 198.43 286.936 198.491 286.969L198.609 286.749ZM197.215 281.637L197.456 281.571C197.431 281.478 197.355 281.408 197.26 281.391L197.215 281.637ZM193.521 280.965L193.566 280.719C193.52 280.711 193.472 280.716 193.429 280.733L193.521 280.965ZM191.863 281.628L191.77 281.396C191.745 281.407 191.721 281.421 191.701 281.439L191.863 281.628ZM187.83 285.085L187.77 285.328C187.848 285.347 187.931 285.328 187.993 285.275L187.83 285.085ZM181.313 283.456H181.063C181.063 283.571 181.141 283.671 181.252 283.699L181.313 283.456ZM181.313 271.066L181.136 270.889C181.089 270.936 181.063 271 181.063 271.066H181.313ZM188.116 264.263L188.293 264.44C188.316 264.416 188.335 264.389 188.347 264.358L188.116 264.263ZM191.482 256.087L191.256 255.981L191.251 255.992L191.482 256.087ZM195.478 247.597L195.704 247.703C195.706 247.699 195.708 247.694 195.71 247.689L195.478 247.597ZM198.434 240.206L198.666 240.299C198.668 240.295 198.67 240.29 198.671 240.285L198.434 240.206ZM200.313 234.57L200.55 234.649C200.559 234.623 200.563 234.597 200.563 234.57H200.313ZM200.313 224.416L200.16 224.219C200.099 224.266 200.063 224.339 200.063 224.416H200.313ZM205.107 220.688L205.261 220.885C205.3 220.855 205.329 220.813 205.344 220.767L205.107 220.688ZM205.813 218.57L206.05 218.649C206.059 218.623 206.063 218.597 206.063 218.57H205.813ZM205.813 188.729L205.566 188.688C205.564 188.701 205.563 188.715 205.563 188.729H205.813ZM206.813 182.729L207.06 182.77C207.062 182.756 207.063 182.743 207.063 182.729H206.813ZM206.813 174.213H207.063C207.063 174.113 207.003 174.023 206.911 173.983L206.813 174.213ZM204.171 173.081L203.994 173.258C204.017 173.28 204.043 173.298 204.073 173.311L204.171 173.081ZM200.759 169.669L200.551 169.807C200.56 169.821 200.57 169.834 200.582 169.845L200.759 169.669ZM200.243 168.894L200.451 168.756C200.404 168.686 200.326 168.644 200.243 168.644V168.894ZM198.813 168.894H198.563C198.563 169.032 198.675 169.144 198.813 169.144V168.894ZM198.813 164.894V164.644C198.675 164.644 198.563 164.756 198.563 164.894H198.813ZM202.827 164.894V165.144C202.914 165.144 202.994 165.1 203.04 165.026C203.085 164.952 203.089 164.86 203.051 164.783L202.827 164.894ZM201.813 162.867H201.563C201.563 162.905 201.572 162.944 201.589 162.978L201.813 162.867ZM201.813 156.324L201.674 156.116C201.605 156.162 201.563 156.24 201.563 156.324H201.813ZM205.187 154.075L205.325 154.283C205.368 154.255 205.4 154.215 205.419 154.168L205.187 154.075ZM205.813 152.509L206.045 152.602C206.057 152.573 206.063 152.541 206.063 152.509H205.813ZM205.813 146.808L205.564 146.786C205.563 146.793 205.563 146.8 205.563 146.808H205.813ZM206.813 135.308L207.062 135.329C207.063 135.322 207.063 135.315 207.063 135.308H206.813ZM206.813 128.209L206.567 128.162C206.564 128.178 206.563 128.193 206.563 128.209H206.813ZM208.367 119.921L208.127 119.85C208.125 119.858 208.123 119.867 208.121 119.875L208.367 119.921ZM209.813 115.101L210.052 115.173C210.059 115.149 210.063 115.125 210.063 115.101H209.813ZM209.813 112.17L209.621 112.01C209.584 112.055 209.563 112.112 209.563 112.17H209.813ZM212.458 108.996L212.65 109.156C212.677 109.125 212.695 109.087 212.703 109.047L212.458 108.996ZM214.313 100.186L214.558 100.238C214.561 100.221 214.563 100.204 214.563 100.186H214.313ZM214.313 75.2947L214.064 75.2698C214.063 75.2781 214.063 75.2864 214.063 75.2947H214.313ZM215.313 65.2946L215.562 65.3195C215.563 65.3112 215.563 65.3029 215.563 65.2946H215.313ZM215.313 50.2749L215.065 50.2451C215.064 50.255 215.063 50.2649 215.063 50.2749H215.313ZM216.813 37.7749L217.061 37.8047C217.062 37.7948 217.063 37.7849 217.063 37.7749H216.813ZM216.813 31.2571H217.063C217.063 31.2271 217.058 31.1974 217.047 31.1693L216.813 31.2571ZM215.313 27.2571H215.063C215.063 27.2871 215.068 27.3168 215.079 27.3449L215.313 27.2571ZM215.313 11.7535L215.11 11.6082C215.079 11.6506 215.063 11.7014 215.063 11.7535H215.313ZM218.237 7.65999L218.047 7.49729C218.042 7.50288 218.038 7.50869 218.034 7.51468L218.237 7.65999ZM221.629 3.70235L221.541 3.46827C221.502 3.48308 221.467 3.50764 221.439 3.53966L221.629 3.70235ZM225.375 2.29753L225.463 2.53162C225.522 2.50946 225.571 2.46578 225.599 2.40934L225.375 2.29753ZM226.024 1L226.136 0.776393C226.012 0.714646 225.862 0.764702 225.801 0.888196L226.024 1ZM212.359 303.522L209.221 301.658L208.966 302.088L212.104 303.952L212.359 303.522ZM216.558 327.366L219.212 328.856L219.456 328.42L216.802 326.931L216.558 327.366ZM219.552 328.761L221.51 325.273L221.074 325.028L219.116 328.516L219.552 328.761ZM214.24 322.576L210.077 321.525L209.954 322.009L214.118 323.061L214.24 322.576ZM210.219 321.622L209.517 320.636L209.109 320.926L209.812 321.912L210.219 321.622ZM209.563 320.781V318.126H209.063V320.781H209.563ZM209.562 318.145L210.032 311.811L209.534 311.774L209.064 318.108L209.562 318.145ZM212.528 304.413L212.748 304.043L212.318 303.788L212.098 304.158L212.528 304.413ZM212.66 303.701L212.441 303.57L212.185 304L212.405 304.13L212.66 303.701ZM212.563 303.785V303.737H212.063V303.785H212.563ZM212.313 303.487H212.231V303.987H212.313V303.487ZM208.878 301.746L208.098 303.06L208.528 303.315L209.308 302.001L208.878 301.746ZM208.063 303.188V305.014H208.563V303.188H208.063ZM208.083 304.917L205.613 310.741L206.073 310.936L208.543 305.112L208.083 304.917ZM205.594 310.82L205.064 317.96L205.562 317.997L206.092 310.857L205.594 310.82ZM205.063 317.978V322.06H205.563V317.978H205.063ZM205.109 322.205L207.407 325.43L207.814 325.14L205.517 321.915L205.109 322.205ZM207.549 325.527L213.386 327.002L213.508 326.517L207.672 325.043L207.549 325.527ZM213.417 327.008L216.65 327.397L216.71 326.9L213.477 326.511L213.417 327.008ZM221.414 324.932L218.068 323.054L217.824 323.49L221.17 325.368L221.414 324.932ZM217.976 323.024L214.209 322.571L214.149 323.067L217.916 323.52L217.976 323.024ZM210.013 311.89L212.543 305.925L212.083 305.73L209.553 311.695L210.013 311.89ZM212.563 305.827V304.286H212.063V305.827H212.563ZM221.579 10.2915L224.187 7.2492L223.807 6.9238L221.199 9.9661L221.579 10.2915ZM219.516 13.1807L221.593 10.2741L221.186 9.98349L219.11 12.8901L219.516 13.1807ZM211.059 128.626L212.505 120.913L212.013 120.821L210.567 128.534L211.059 128.626ZM206.063 161.922V158.465H205.563V161.922H206.063ZM206.632 169.531L205.318 168.218L204.965 168.571L206.278 169.885L206.632 169.531ZM186.856 280.461L185.374 280.09L185.252 280.575L186.735 280.946L186.856 280.461ZM212.498 301.733L211.537 299.81L211.089 300.034L212.051 301.957L212.498 301.733ZM218.322 304.165L212.373 301.615L212.176 302.075L218.125 304.624L218.322 304.165ZM222.063 328.422V324.28H221.563V328.422H222.063ZM224.955 334.147L222.037 328.31L221.589 328.534L224.508 334.371L224.955 334.147ZM200.441 386.66L205.079 376.919L204.628 376.704L199.989 386.445L200.441 386.66ZM196.042 406.237L200.459 386.607L199.971 386.497L195.554 406.127L196.042 406.237ZM158.551 514.128L164.031 471.788L163.535 471.724L158.055 514.064L158.551 514.128ZM158.545 514.18L158.551 514.125L158.054 514.068L158.048 514.122L158.545 514.18ZM128.948 572.106C129.28 571.108 130.645 566.188 131.696 562.363L131.214 562.23C130.16 566.067 128.8 570.967 128.473 571.948L128.948 572.106ZM128.16 573.971C128.532 573.136 128.841 572.425 128.948 572.106L128.473 571.948C128.377 572.238 128.081 572.921 127.703 573.767L128.16 573.971ZM126.565 577.466C127.213 576.069 127.759 574.871 128.16 573.971L127.703 573.767C127.303 574.664 126.759 575.86 126.112 577.255L126.565 577.466ZM121.77 587.512C123.56 583.869 125.27 580.26 126.565 577.466L126.112 577.255C124.818 580.047 123.109 583.653 121.321 587.291L121.77 587.512ZM116.479 597.793C118.105 594.842 119.982 591.149 121.77 587.512L121.321 587.291C119.535 590.926 117.662 594.61 116.041 597.552L116.479 597.793ZM114.234 601.622C114.903 600.581 115.667 599.266 116.479 597.793L116.041 597.552C115.232 599.02 114.474 600.324 113.814 601.352L114.234 601.622ZM112.253 604.123C112.931 603.558 113.623 602.574 114.234 601.622L113.814 601.352C113.199 602.309 112.544 603.23 111.933 603.739L112.253 604.123ZM111.801 604.501C111.969 604.36 112.121 604.233 112.253 604.123L111.933 603.739C111.801 603.849 111.649 603.976 111.48 604.117L111.801 604.501ZM102.958 611.722C106.514 608.912 110.068 605.947 111.801 604.501L111.48 604.117C109.747 605.563 106.199 608.524 102.648 611.33L102.958 611.722ZM97.3494 615.972C99.0363 614.775 101.009 613.263 102.958 611.722L102.648 611.33C100.701 612.869 98.7366 614.374 97.06 615.564L97.3494 615.972ZM95.019 617.528C95.7147 617.104 96.507 616.569 97.3494 615.972L97.06 615.564C96.2225 616.158 95.4405 616.685 94.7584 617.102L95.019 617.528ZM93.0245 618.529C93.6565 618.318 94.3625 617.929 95.019 617.528L94.7584 617.102C94.107 617.5 93.4415 617.863 92.8664 618.055L93.0245 618.529ZM87.823 618.415C89.179 618.843 90.8563 619.252 93.0245 618.529L92.8664 618.055C90.8467 618.728 89.2921 618.355 87.9735 617.938L87.823 618.415ZM87.2838 618.241C87.4562 618.297 87.6354 618.356 87.8229 618.415L87.9736 617.938C87.7883 617.88 87.611 617.822 87.4384 617.766L87.2838 618.241ZM84.313 617.644C85.4434 617.644 86.2426 617.903 87.2838 618.241L87.4384 617.766C86.3983 617.428 85.5311 617.144 84.313 617.144V617.644ZM83.7924 617.881C84.0331 617.754 84.1917 617.694 84.279 617.666C84.3223 617.652 84.3492 617.645 84.3616 617.642C84.3634 617.642 84.365 617.641 84.3667 617.641C84.3681 617.641 84.3703 617.64 84.3722 617.64C84.3739 617.639 84.3777 617.638 84.382 617.637C84.3842 617.637 84.3881 617.636 84.3928 617.634C84.3962 617.633 84.4066 617.63 84.4193 617.625C84.4255 617.622 84.4379 617.616 84.4524 617.607C84.462 617.601 84.4985 617.579 84.5285 617.534C84.5453 617.509 84.5653 617.469 84.5699 617.417C84.5749 617.361 84.5609 617.31 84.5367 617.268C84.4956 617.198 84.4343 617.171 84.4213 617.166C84.3854 617.15 84.3537 617.147 84.3521 617.147C84.343 617.145 84.3357 617.145 84.3326 617.145C84.3261 617.144 84.3205 617.144 84.3189 617.144C84.3167 617.144 84.3143 617.144 84.313 617.144V617.644C84.32 617.644 84.3136 617.645 84.3066 617.644C84.3041 617.644 84.2974 617.644 84.2887 617.643C84.2875 617.642 84.2561 617.639 84.2203 617.624C84.2074 617.618 84.1462 617.591 84.1051 617.521C84.0809 617.48 84.067 617.428 84.0719 617.373C84.0765 617.32 84.0965 617.28 84.1133 617.255C84.1433 617.211 84.1797 617.188 84.1892 617.182C84.2036 617.173 84.2159 617.168 84.222 617.165C84.2343 617.16 84.2443 617.157 84.2472 617.156C84.2514 617.155 84.2546 617.154 84.256 617.154C84.2587 617.153 84.2605 617.152 84.2596 617.153C84.2422 617.157 84.2711 617.15 84.2491 617.155C84.2254 617.16 84.1843 617.171 84.125 617.19C84.0071 617.228 83.8222 617.3 83.5593 617.439L83.7924 617.881ZM82.1254 618.994C82.7902 618.485 83.3481 618.115 83.7924 617.881L83.5593 617.439C83.0803 617.691 82.4975 618.08 81.8216 618.597L82.1254 618.994ZM77.6676 622.908C79.261 621.408 80.7964 620.011 82.1254 618.994L81.8216 618.597C80.4702 619.631 78.9184 621.044 77.3249 622.544L77.6676 622.908ZM76.3166 624.187C76.7681 623.758 77.2206 623.329 77.6676 622.908L77.3249 622.544C76.877 622.965 76.4236 623.396 75.9724 623.824L76.3166 624.187ZM73.0836 627.199C74.081 626.31 75.1959 625.251 76.3166 624.187L75.9723 623.824C74.85 624.89 73.7412 625.943 72.7509 626.826L73.0836 627.199ZM71.0575 628.878C71.6906 628.409 72.3793 627.827 73.0836 627.199L72.7509 626.826C72.0512 627.449 71.3754 628.021 70.7599 628.476L71.0575 628.878ZM69.0245 630.029C69.7547 629.786 70.4688 629.314 71.0575 628.878L70.7599 628.476C70.1794 628.906 69.518 629.337 68.8664 629.555L69.0245 630.029ZM64.5485 631.395C65.5217 631.129 67.1359 630.658 69.0245 630.029L68.8664 629.555C66.9873 630.181 65.3819 630.649 64.4167 630.913L64.5485 631.395ZM60.2041 637.126L64.6808 631.307L64.2845 631.002L59.8078 636.821L60.2041 637.126ZM53.824 649.404L60.2278 637.089L59.7842 636.858L53.3804 649.173L53.824 649.404ZM33.5103 681.274L34.7706 682.534L35.1242 682.18L33.8638 680.92L33.5103 681.274ZM21.8433 707.364L21.8521 707.346L21.3999 707.132L21.3912 707.151L21.8433 707.364ZM4.85263 743.844L21.8439 707.363L21.3906 707.152L4.39938 743.633L4.85263 743.844ZM0.894448 742.277L4.52045 743.965L4.73155 743.512L1.10555 741.823L0.894448 742.277ZM37.9254 672.145L34.4865 676.272L34.8706 676.592L38.3095 672.465L37.9254 672.145ZM62.7673 627.212L62.0917 627.381L62.213 627.866L62.8886 627.697L62.7673 627.212ZM67.6015 625.76C65.2506 626.544 63.3727 627.06 62.7673 627.212L62.8885 627.697C63.5076 627.542 65.3978 627.022 67.7596 626.234L67.6015 625.76ZM67.6366 625.743C67.6174 625.753 67.6049 625.758 67.5987 625.761C67.5957 625.762 67.5941 625.762 67.5939 625.763C67.5938 625.763 67.5939 625.763 67.5933 625.763C67.5932 625.763 67.5923 625.763 67.5913 625.764C67.5909 625.764 67.5894 625.764 67.5875 625.765C67.5866 625.765 67.5845 625.766 67.5819 625.767C67.5817 625.767 67.5724 625.771 67.5615 625.777C67.558 625.779 67.5495 625.784 67.5445 625.787C67.5364 625.793 67.5144 625.81 67.5011 625.823C67.4736 625.857 67.4303 625.999 67.454 626.103C67.5089 626.179 67.622 626.24 67.6575 626.246C67.6734 626.247 67.698 626.247 67.7067 626.246C67.7121 626.245 67.7212 626.244 67.7248 626.243C67.7319 626.242 67.7374 626.241 67.7396 626.24C67.7444 626.239 67.7482 626.238 67.7493 626.237C67.751 626.237 67.7523 626.237 67.753 626.236C67.7544 626.236 67.7555 626.236 67.7558 626.235C67.7563 626.235 67.7567 626.235 67.7569 626.235L67.6042 625.759C67.6043 625.759 67.6046 625.759 67.605 625.759C67.6054 625.759 67.6064 625.758 67.6078 625.758C67.6085 625.758 67.6097 625.757 67.6114 625.757C67.6124 625.757 67.6162 625.755 67.6211 625.754C67.6233 625.754 67.6288 625.752 67.6359 625.751C67.6395 625.75 67.6485 625.749 67.6539 625.749C67.6626 625.748 67.6872 625.747 67.7032 625.748C67.7386 625.754 67.8517 625.815 67.9066 625.891C67.9303 625.995 67.8871 626.138 67.8595 626.171C67.8462 626.184 67.8242 626.202 67.8162 626.207C67.8111 626.21 67.8026 626.215 67.7991 626.217C67.7882 626.223 67.7789 626.227 67.7788 626.227C67.7762 626.228 67.7741 626.229 67.7733 626.229C67.7714 626.23 67.7699 626.231 67.7695 626.231C67.769 626.231 67.7685 626.231 67.7684 626.231C67.7682 626.231 67.768 626.231 67.768 626.231C67.7678 626.231 67.7686 626.231 67.7693 626.231C67.77 626.23 67.771 626.23 67.772 626.23C67.7764 626.228 67.7824 626.226 67.79 626.223C67.8051 626.216 67.8261 626.207 67.8534 626.194L67.6366 625.743ZM67.803 625.653C67.7297 625.696 67.6747 625.725 67.6366 625.743L67.8534 626.194C67.9067 626.168 67.9745 626.132 68.0576 626.083L67.803 625.653ZM68.379 625.262C68.1431 625.437 67.952 625.565 67.803 625.653L68.0576 626.083C68.2258 625.984 68.4316 625.845 68.6766 625.664L68.379 625.262ZM70.0892 623.84C69.4264 624.431 68.8534 624.911 68.379 625.262L68.6766 625.664C69.1686 625.3 69.7545 624.808 70.422 624.213L70.0892 623.84ZM73.1674 620.972C72.0658 622.018 71.0302 623.001 70.0892 623.84L70.422 624.213C71.37 623.368 72.4117 622.379 73.5117 621.334L73.1674 620.972ZM74.5834 619.631C74.1019 620.084 73.6289 620.533 73.1674 620.972L73.5117 621.334C73.9734 620.896 74.4455 620.447 74.9261 619.995L74.5834 619.631ZM79.3912 615.42C77.8609 616.591 76.1775 618.131 74.5834 619.631L74.9261 619.995C76.5201 618.495 78.187 616.971 79.695 615.817L79.3912 615.42ZM81.6949 613.9C80.9381 614.299 80.1561 614.835 79.3912 615.42L79.695 615.817C80.4488 615.24 81.2058 614.723 81.928 614.342L81.6949 613.9ZM84.313 613.144C83.3272 613.144 82.4049 613.526 81.6949 613.9L81.928 614.342C82.6133 613.981 83.4489 613.644 84.313 613.644V613.144ZM88.7406 613.981C87.6928 613.635 86.2112 613.144 84.313 613.144V613.644C86.1244 613.644 87.5396 614.111 88.5837 614.456L88.7406 613.981ZM89.1781 614.124C89.042 614.081 88.8967 614.033 88.7405 613.981L88.5838 614.456C88.7392 614.507 88.8877 614.556 89.0275 614.601L89.1781 614.124ZM91.6015 614.26C90.7697 614.537 90.197 614.446 89.1781 614.124L89.0275 614.601C90.0839 614.934 90.7793 615.061 91.7596 614.734L91.6015 614.26ZM92.6734 613.688C92.0599 614.063 91.7192 614.221 91.6014 614.26L91.7597 614.734C91.9349 614.676 92.3163 614.492 92.9341 614.115L92.6734 613.688ZM94.7454 612.302C93.9472 612.868 93.2473 613.338 92.6734 613.688L92.934 614.115C93.5214 613.756 94.2316 613.279 95.0347 612.709L94.7454 612.302ZM100.168 608.192C98.2424 609.713 96.3397 611.17 94.7454 612.302L95.0347 612.709C96.6394 611.571 98.5498 610.108 100.478 608.584L100.168 608.192ZM108.918 601.045C107.182 602.493 103.674 605.421 100.168 608.192L100.478 608.584C103.989 605.809 107.503 602.877 109.238 601.429L108.918 601.045ZM109.373 600.666C109.239 600.777 109.087 600.904 108.918 601.045L109.238 601.429C109.407 601.288 109.559 601.161 109.693 601.05L109.373 600.666ZM109.371 600.666C109.368 600.67 109.366 600.672 109.366 600.672C109.366 600.672 109.366 600.672 109.367 600.671C109.367 600.67 109.368 600.67 109.369 600.669C109.369 600.669 109.369 600.669 109.37 600.668C109.37 600.668 109.37 600.668 109.37 600.668C109.371 600.668 109.371 600.668 109.371 600.667C109.371 600.667 109.371 600.667 109.371 600.667C109.371 600.667 109.371 600.667 109.371 600.667C109.371 600.667 109.371 600.667 109.371 600.667C109.371 600.667 109.371 600.667 109.533 600.858C109.694 601.049 109.694 601.049 109.694 601.049C109.694 601.049 109.694 601.049 109.694 601.049C109.694 601.049 109.694 601.049 109.694 601.049C109.694 601.049 109.694 601.049 109.694 601.049C109.695 601.048 109.695 601.048 109.695 601.048C109.695 601.048 109.695 601.048 109.696 601.048C109.696 601.047 109.696 601.047 109.697 601.046C109.698 601.046 109.699 601.045 109.699 601.044C109.701 601.043 109.703 601.041 109.705 601.04C109.708 601.036 109.712 601.032 109.718 601.027L109.371 600.666ZM109.447 600.587C109.407 600.632 109.382 600.656 109.371 600.667L109.718 601.027C109.738 601.008 109.771 600.974 109.819 600.921L109.447 600.587ZM109.694 600.284C109.592 600.418 109.509 600.517 109.447 600.587L109.819 600.921C109.892 600.839 109.983 600.729 110.091 600.588L109.694 600.284ZM110.448 599.19C110.153 599.65 109.9 600.014 109.694 600.284L110.091 600.588C110.309 600.303 110.569 599.927 110.869 599.46L110.448 599.19ZM112.538 595.621C111.748 597.054 111.039 598.27 110.448 599.19L110.869 599.46C111.469 598.527 112.183 597.3 112.976 595.862L112.538 595.621ZM117.731 585.527C115.956 589.14 114.114 592.76 112.538 595.621L112.976 595.862C114.558 592.991 116.403 589.363 118.18 585.748L117.731 585.527ZM122.483 575.573C121.2 578.341 119.504 581.919 117.731 585.527L118.18 585.748C119.955 582.136 121.652 578.554 122.936 575.784L122.483 575.573ZM124.05 572.138C123.66 573.012 123.124 574.189 122.483 575.573L122.936 575.784C123.578 574.398 124.116 573.218 124.507 572.342L124.05 572.138ZM124.514 571.08C124.401 571.345 124.245 571.7 124.05 572.138L124.507 572.342C124.703 571.903 124.86 571.544 124.974 571.276L124.514 571.08ZM124.645 570.766C124.614 570.843 124.571 570.947 124.514 571.08L124.974 571.276C125.032 571.141 125.076 571.034 125.109 570.953L124.645 570.766ZM124.917 570.758C124.682 570.672 124.682 570.672 124.682 570.672C124.682 570.672 124.682 570.672 124.682 570.672C124.682 570.672 124.682 570.672 124.682 570.672C124.682 570.672 124.682 570.672 124.682 570.672C124.682 570.672 124.682 570.672 124.682 570.672C124.682 570.672 124.682 570.672 124.682 570.672C124.682 570.672 124.682 570.672 124.682 570.672C124.682 570.673 124.682 570.674 124.681 570.675C124.68 570.678 124.678 570.684 124.675 570.691C124.669 570.706 124.659 570.731 124.645 570.766L125.109 570.953C125.124 570.916 125.134 570.889 125.141 570.872C125.145 570.863 125.147 570.856 125.149 570.852C125.15 570.849 125.15 570.847 125.151 570.846C125.151 570.845 125.151 570.845 125.152 570.844C125.152 570.844 125.152 570.844 125.152 570.844C125.152 570.844 125.152 570.844 125.152 570.844C125.152 570.844 125.152 570.844 125.152 570.844C125.152 570.844 125.152 570.844 125.152 570.844C125.152 570.844 125.152 570.843 125.152 570.843C125.152 570.843 125.152 570.843 124.917 570.758ZM125.153 570.84L125.154 570.836L124.68 570.679L124.678 570.684L125.153 570.84ZM128.142 558.302C127.128 562.022 125.053 569.561 124.678 570.683L125.153 570.841C125.533 569.701 127.614 562.141 128.625 558.434L128.142 558.302ZM128.927 555.425L128.142 558.302L128.625 558.434L129.409 555.556L128.927 555.425ZM143.129 561.644H137.493V562.144H143.129V561.644ZM150.645 547.668L142.91 561.774L143.348 562.015L151.083 547.909L150.645 547.668ZM165.124 447.874L165.116 447.911L165.603 448.023L165.612 447.985L165.124 447.874ZM186.235 421.223L185.236 420.624L184.979 421.053L185.977 421.652L186.235 421.223ZM221.225 350.556L218.018 358.345L218.48 358.536L221.687 350.747L221.225 350.556ZM221.232 350.539L221.224 350.558L221.688 350.746L221.695 350.727L221.232 350.539ZM224.081 343.416L221.232 350.54L221.696 350.726L224.545 343.602L224.081 343.416ZM224.063 338.336V343.509H224.563V338.336H224.063ZM221.068 311.147L219.643 318.273L220.133 318.371L221.558 311.245L221.068 311.147ZM221.063 309.555V311.196H221.563V309.555H221.063ZM219.158 308.612L221.189 309.772L221.437 309.338L219.406 308.177L219.158 308.612ZM205.009 290.415L207.082 295.391L207.544 295.198L205.471 290.223L205.009 290.415ZM193.477 281.211L197.17 281.883L197.26 281.391L193.566 280.719L193.477 281.211ZM191.956 281.861L193.614 281.197L193.429 280.733L191.77 281.396L191.956 281.861ZM198.202 240.113L195.246 247.504L195.71 247.689L198.666 240.299L198.202 240.113ZM200.076 234.491L198.197 240.127L198.671 240.285L200.55 234.649L200.076 234.491ZM205.576 218.491L204.87 220.608L205.344 220.767L206.05 218.649L205.576 218.491ZM198.813 169.144H200.243V168.644H198.813V169.144ZM198.563 164.894V168.894H199.063V164.894H198.563ZM205.581 152.416L204.955 153.982L205.419 154.168L206.045 152.602L205.581 152.416ZM214.068 100.135L212.214 108.944L212.703 109.047L214.558 100.238L214.068 100.135ZM225.801 0.888196L225.152 2.18573L225.599 2.40934L226.248 1.1118L225.801 0.888196ZM229.714 2.56525L226.136 0.776393L225.912 1.22361L229.49 3.01246L229.714 2.56525ZM228.474 5.60312L229.825 2.90066L229.378 2.67705L228.027 5.37952L228.474 5.60312ZM224.085 7.32058L228.338 5.7254L228.163 5.25724L223.909 6.85242L224.085 7.32058ZM219.563 26.5317V13.0354H219.063V26.5317H219.563ZM221.047 30.444L219.547 26.444L219.079 26.6195L220.579 30.6195L221.047 30.444ZM221.063 38.014V30.5318H220.563V38.014H221.063ZM219.561 50.5437L221.061 38.0438L220.565 37.9842L219.065 50.4842L219.561 50.5437ZM219.563 65.4942V50.514H219.063V65.4942H219.563ZM218.562 75.5191L219.562 65.5191L219.064 65.4693L218.064 75.4694L218.562 75.5191ZM218.563 100.603V75.4942H218.063V100.603H218.563ZM216.412 110.844L218.558 100.654L218.068 100.551L215.923 110.741L216.412 110.844ZM214.005 113.779L216.36 110.953L215.976 110.633L213.621 113.458L214.005 113.779ZM214.063 115.688V113.619H213.563V115.688H214.063ZM212.499 120.939L214.052 115.76L213.574 115.616L212.02 120.796L212.499 120.939ZM211.063 135.481V128.58H210.563V135.481H211.063ZM210.062 147.003L211.062 135.503L210.564 135.46L209.564 146.96L210.062 147.003ZM210.063 153.28V146.981H209.563V153.28H210.063ZM208.671 156.807L210.045 153.372L209.581 153.187L208.207 156.621L208.671 156.807ZM205.952 158.673L208.578 156.922L208.301 156.506L205.674 158.257L205.952 158.673ZM207.97 165.678L206.037 161.81L205.589 162.034L207.523 165.901L207.97 165.678ZM205.318 168.571L207.923 165.966L207.57 165.613L204.965 168.218L205.318 168.571ZM210.911 171.346L206.553 169.478L206.356 169.938L210.715 171.805L210.911 171.346ZM211.063 183.06V171.576H210.563V183.06H211.063ZM210.06 189.101L211.06 183.101L210.566 183.019L209.566 189.019L210.06 189.101ZM210.063 219.219V189.06H209.563V219.219H210.063ZM208.756 223.18L210.05 219.298L209.576 219.14L208.282 223.022L208.756 223.18ZM204.466 226.57L208.672 223.299L208.365 222.904L204.16 226.175L204.466 226.57ZM204.563 235.219V226.373H204.063V235.219H204.563ZM202.429 241.662L204.55 235.298L204.076 235.14L201.955 241.504L202.429 241.662ZM199.38 249.285L202.424 241.675L201.96 241.49L198.916 249.099L199.38 249.285ZM195.37 257.808L199.374 249.299L198.922 249.086L194.917 257.595L195.37 257.808ZM191.741 266.621L195.375 257.797L194.912 257.606L191.279 266.431L191.741 266.621ZM185.49 272.9L191.687 266.703L191.333 266.349L185.136 272.546L185.49 272.9ZM185.563 280.333V272.723H185.063V280.333H185.563ZM189.6 277.971L186.633 280.514L186.958 280.893L189.925 278.35L189.6 277.971ZM193.012 276.592L189.67 277.928L189.856 278.393L193.197 277.056L193.012 276.592ZM200.456 277.906L193.149 276.578L193.06 277.07L200.366 278.398L200.456 277.906ZM202.258 283.975L200.652 278.086L200.17 278.218L201.776 284.106L202.258 283.975ZM208.505 287.25L202.135 283.82L201.898 284.26L208.268 287.69L208.505 287.25ZM211.544 294.398L208.617 287.374L208.155 287.566L211.082 294.591L211.544 294.398ZM211.563 299.922V294.494H211.063V299.922H211.563ZM220.344 304.144H218.224V304.644H220.344V304.144ZM225.437 307.017L220.468 304.177L220.22 304.612L225.189 307.451L225.437 307.017ZM225.563 311.592V307.234H225.063V311.592H225.563ZM223.983 319.516L225.558 311.641L225.068 311.543L223.493 319.418L223.983 319.516ZM222.045 324.372L223.97 319.56L223.506 319.374L221.581 324.187L222.045 324.372ZM228.392 335.216L224.81 334.022L224.652 334.496L228.234 335.69L228.392 335.216ZM228.563 344.28V335.453H228.063V344.28H228.563ZM225.398 352.239L228.545 344.372L228.081 344.187L224.934 352.054L225.398 352.239ZM221.608 361.444L225.397 352.242L224.935 352.051L221.146 361.253L221.608 361.444ZM216.355 364.139L221.489 361.572L221.265 361.125L216.132 363.692L216.355 364.139ZM210.995 373.48L216.46 364.04L216.027 363.79L210.562 373.23L210.995 373.48ZM204.979 377.027L210.904 373.571L210.652 373.139L204.728 376.595L204.979 377.027ZM194.934 422.911L196.048 406.199L195.549 406.166L194.435 422.878L194.934 422.911ZM190.553 423.144H194.684V422.644H190.553V423.144ZM186.683 426.541L190.716 423.084L190.39 422.705L186.357 426.161L186.683 426.541ZM182.39 424.164L186.391 426.565L186.649 426.137L182.647 423.736L182.39 424.164ZM177.186 418.285L182.331 424.115L182.706 423.785L177.561 417.954L177.186 418.285ZM176.479 423.013L177.617 418.177L177.13 418.062L175.992 422.898L176.479 423.013ZM172.977 433.023L176.472 423.038L176 422.873L172.505 432.858L172.977 433.023ZM169.507 448.894L172.985 432.994L172.497 432.887L169.018 448.787L169.507 448.894ZM164.026 471.815L169.506 448.899L169.02 448.783L163.54 471.698L164.026 471.815ZM155.011 549.025L158.545 514.176L158.048 514.126L154.513 548.975L155.011 549.025ZM145.716 566.015L154.981 549.12L154.543 548.88L145.278 565.774L145.716 566.015ZM136.133 566.144H145.497V565.644H136.133V566.144ZM131.303 562.495L135.98 566.093L136.285 565.696L131.608 562.098L131.303 562.495ZM41.7339 674.592L53.8275 649.397L53.3768 649.181L41.2831 674.376L41.7339 674.592ZM35.1395 682.517L41.7006 674.644L41.3165 674.324L34.7553 682.197L35.1395 682.517ZM32.9082 684.224L33.9242 681.176L33.4499 681.018L32.4338 684.066L32.9082 684.224ZM21.8515 707.347L32.8965 684.253L32.4455 684.037L21.4005 707.131L21.8515 707.347ZM17.7777 705.435L0.773375 741.944L1.22663 742.156L18.2309 705.646L17.7777 705.435ZM28.7295 682.536L17.7788 705.433L18.2299 705.649L29.1806 682.752L28.7295 682.536ZM31.7018 673.613L28.7178 682.565L29.1922 682.723L32.1761 673.771L31.7018 673.613ZM34.8554 676.255L32.1157 673.515L31.7622 673.869L34.5018 676.608L34.8554 676.255ZM49.7984 647.392L37.8921 672.197L38.3429 672.413L50.2492 647.608L49.7984 647.392ZM56.3983 634.7L49.802 647.385L50.2456 647.615L56.8419 634.93L56.3983 634.7ZM61.9542 627.471L56.4219 634.663L56.8182 634.967L62.3505 627.775L61.9542 627.471ZM137.646 561.696L129.321 555.292L129.016 555.689L137.341 562.093L137.646 561.696ZM154.077 513.64L150.615 547.763L151.113 547.814L154.575 513.69L154.077 513.64ZM159.595 471L154.078 513.633L154.574 513.697L160.091 471.065L159.595 471ZM165.116 447.909L159.6 470.974L160.086 471.091L165.602 448.025L165.116 447.909ZM168.641 431.795L165.124 447.876L165.612 447.983L169.129 431.902L168.641 431.795ZM172.154 421.751L168.649 431.766L169.121 431.931L172.626 421.916L172.154 421.751ZM175.009 409.612L172.147 421.776L172.634 421.891L175.496 409.727L175.009 409.612ZM185.295 420.673L175.44 409.504L175.065 409.835L184.92 421.004L185.295 420.673ZM188.91 418.705L185.943 421.248L186.269 421.628L189.236 419.084L188.91 418.705ZM190.942 418.644H189.073V419.144H190.942V418.644ZM191.578 405.59L190.692 418.878L191.191 418.911L192.077 405.623L191.578 405.59ZM196.167 385.182L191.584 405.552L192.072 405.662L196.655 385.292L196.167 385.182ZM201.547 373.87L196.185 385.129L196.637 385.344L201.998 374.085L201.547 373.87ZM207.722 370.218L201.647 373.762L201.898 374.194L207.974 370.65L207.722 370.218ZM213.166 360.748L207.631 370.309L208.064 370.559L213.599 360.999L213.166 360.748ZM218.137 358.217L213.271 360.65L213.494 361.097L218.361 358.664L218.137 358.217ZM221.816 337.767L224.234 338.573L224.392 338.099L221.974 337.293L221.816 337.767ZM217.589 329.478L221.671 337.642L222.118 337.418L218.037 329.255L217.589 329.478ZM217.563 323.509V329.367H218.063V323.509H217.563ZM219.656 318.229L217.581 323.416L218.045 323.602L220.12 318.415L219.656 318.229ZM217.402 308.644H219.282V308.144H217.402V308.644ZM209.253 305.174L217.304 308.624L217.501 308.165L209.45 304.714L209.253 305.174ZM207.089 300.978L209.128 305.056L209.575 304.832L207.537 300.755L207.089 300.978ZM207.063 295.294V300.867H207.563V295.294H207.063ZM198.491 286.969L205.121 290.539L205.358 290.099L198.728 286.528L198.491 286.969ZM196.974 281.702L198.368 286.814L198.85 286.683L197.456 281.571L196.974 281.702ZM187.993 285.275L192.026 281.818L191.701 281.439L187.668 284.895L187.993 285.275ZM181.252 283.699L187.77 285.328L187.891 284.843L181.374 283.213L181.252 283.699ZM181.063 271.066V283.456H181.563V271.066H181.063ZM187.939 264.086L181.136 270.889L181.49 271.243L188.293 264.44L187.939 264.086ZM191.251 255.992L187.885 264.168L188.347 264.358L191.714 256.183L191.251 255.992ZM195.252 247.49L191.256 255.981L191.709 256.194L195.704 247.703L195.252 247.49ZM200.063 224.416V234.57H200.563V224.416H200.063ZM204.954 220.49L200.16 224.219L200.466 224.614L205.261 220.885L204.954 220.49ZM205.563 188.729V218.57H206.063V188.729H205.563ZM206.566 182.688L205.566 188.688L206.06 188.77L207.06 182.77L206.566 182.688ZM206.563 174.213V182.729H207.063V174.213H206.563ZM204.073 173.311L206.715 174.443L206.911 173.983L204.27 172.851L204.073 173.311ZM200.582 169.845L203.994 173.258L204.348 172.904L200.936 169.492L200.582 169.845ZM200.035 169.033L200.551 169.807L200.967 169.53L200.451 168.756L200.035 169.033ZM202.827 164.644H198.813V165.144H202.827V164.644ZM201.589 162.978L202.603 165.006L203.051 164.783L202.037 162.755L201.589 162.978ZM201.563 156.324V162.867H202.063V156.324H201.563ZM205.048 153.867L201.674 156.116L201.952 156.532L205.325 154.283L205.048 153.867ZM205.563 146.808V152.509H206.063V146.808H205.563ZM206.564 135.286L205.564 146.786L206.062 146.829L207.062 135.329L206.564 135.286ZM206.563 128.209V135.308H207.063V128.209H206.563ZM208.121 119.875L206.567 128.162L207.059 128.255L208.613 119.968L208.121 119.875ZM209.574 115.029L208.127 119.85L208.606 119.993L210.052 115.173L209.574 115.029ZM209.563 112.17V115.101H210.063V112.17H209.563ZM212.266 108.836L209.621 112.01L210.005 112.33L212.65 109.156L212.266 108.836ZM214.063 75.2947V100.186H214.563V75.2947H214.063ZM215.064 65.2697L214.064 75.2698L214.562 75.3195L215.562 65.3195L215.064 65.2697ZM215.063 50.2749V65.2946H215.563V50.2749H215.063ZM216.565 37.7451L215.065 50.2451L215.561 50.3046L217.061 37.8047L216.565 37.7451ZM216.563 31.2571V37.7749H217.063V31.2571H216.563ZM215.079 27.3449L216.579 31.3449L217.047 31.1693L215.547 27.1693L215.079 27.3449ZM215.063 11.7535V27.2571H215.563V11.7535H215.063ZM218.034 7.51468L215.11 11.6082L215.516 11.8988L218.44 7.8053L218.034 7.51468ZM221.439 3.53966L218.047 7.49729L218.427 7.82269L221.819 3.86505L221.439 3.53966ZM225.288 2.06345L221.541 3.46827L221.717 3.93644L225.463 2.53162L225.288 2.06345Z" fill="white"/>
</svg>
