<svg width="237" height="751" viewBox="0 0 237 751" fill="none" xmlns="http://www.w3.org/2000/svg">
<mask id="path-1-outside-1_108_17" maskUnits="userSpaceOnUse" x="-1" y="-1" width="238" height="752" fill="black">
<rect fill="white" x="-1" y="-1" width="238" height="752"/>
<path fill-rule="evenodd" clip-rule="evenodd" d="M215.231 306.737L212.093 304.873L211.313 306.188V308.014L208.843 313.838L208.313 320.978V325.06L210.611 328.285L216.447 329.76L219.68 330.148L222.334 331.638L224.292 328.15L220.946 326.272L217.179 325.819L213.015 324.767L212.313 323.781V321.126L212.783 314.793L215.313 308.827V307.286L215.533 306.915L215.313 306.785V306.737H215.231Z"/>
<path fill-rule="evenodd" clip-rule="evenodd" d="M232.602 5.78885L231.251 8.49132L226.997 10.0865L224.389 13.1288L222.313 16.0354V29.5317L223.813 33.5318V41.014L222.313 53.514V68.4942L221.313 78.4942V103.603L219.168 113.793L216.813 116.619V118.688L215.259 123.867L213.813 131.58V138.481L212.813 149.981V156.28L211.439 159.714L208.813 161.465V164.922L210.747 168.789L208.141 171.394L209.455 172.708L213.813 174.576V186.06L212.813 192.06V222.219L211.519 226.101L207.313 229.373V238.219L205.192 244.583L202.148 252.192L198.144 260.701L194.51 269.526L188.313 275.723V283.333L189.796 283.704L192.763 281.16L196.105 279.824L203.411 281.152L205.017 287.04L211.386 290.47L214.313 297.494V302.922L215.274 304.845L221.224 307.394H223.344L228.313 310.234V314.592L226.738 322.467L224.813 327.28V331.422L227.731 337.259L231.313 338.453V347.28L228.166 355.147L224.377 364.348L219.244 366.915L213.778 376.355L207.854 379.811L203.215 389.552L198.798 409.182L197.684 425.894H193.553L189.52 429.351L185.518 426.95L180.374 421.119L179.236 425.955L175.741 435.94L172.263 451.841L166.783 474.756L161.303 517.096L161.296 517.151L157.762 552L148.497 568.894H139.133L134.455 565.296C133.403 569.127 132.04 574.037 131.71 575.027C131.609 575.331 131.307 576.029 130.932 576.869C130.531 577.767 129.986 578.964 129.339 580.36C128.044 583.154 126.334 586.761 124.546 590.401C122.759 594.038 120.884 597.726 119.26 600.672C118.449 602.143 117.689 603.453 117.024 604.487C116.411 605.441 115.738 606.394 115.093 606.931C114.961 607.041 114.809 607.168 114.64 607.309C112.908 608.755 109.357 611.718 105.803 614.526C103.855 616.066 101.886 617.574 100.205 618.768C99.3647 619.364 98.5776 619.894 97.8887 620.315C97.2348 620.714 96.549 621.091 95.9455 621.292C93.8515 621.99 92.2356 621.599 90.8982 621.177C90.7118 621.118 90.5336 621.06 90.3611 621.004C89.3204 620.665 88.4873 620.394 87.313 620.394C87.3629 620.394 87.1794 620.395 86.6759 620.66C86.2142 620.903 85.6439 621.283 84.9735 621.795C83.6333 622.821 82.0897 624.226 80.4962 625.726C80.0488 626.147 79.5959 626.577 79.1445 627.006C78.023 628.071 76.9111 629.126 75.9173 630.012C75.2153 630.638 74.533 631.215 73.9087 631.677C73.3241 632.11 72.6364 632.561 71.9455 632.792C70.0616 633.42 68.4518 633.889 67.4826 634.154L63.006 639.974L56.6022 652.289L44.5085 677.484L37.9474 685.357L36.687 684.097L35.671 687.145L24.626 710.239L24.6173 710.257L7.626 746.739L4 745.05L21.0043 708.541L31.955 685.644L34.939 676.692L37.6786 679.432L41.1175 675.305L53.0238 650.5L59.6201 637.815L65.1523 630.623L65.8279 630.454C66.4401 630.301 68.3242 629.783 70.6805 628.997C70.6779 628.998 70.6985 628.991 70.745 628.969C70.7907 628.947 70.8521 628.914 70.9303 628.868C71.0889 628.774 71.2874 628.641 71.5278 628.463C72.011 628.105 72.5904 627.619 73.2556 627.026C74.2001 626.185 75.2387 625.198 76.3395 624.153C76.8011 623.715 77.2737 623.266 77.7548 622.813C79.3488 621.313 81.024 619.781 82.5431 618.618C83.3024 618.038 84.072 617.511 84.8115 617.121C85.5091 616.754 86.3881 616.394 87.313 616.394C89.1678 616.394 90.6162 616.873 91.6621 617.219C91.8179 617.27 91.9648 617.319 92.1028 617.362C93.1404 617.69 93.7745 617.799 94.6805 617.497C94.827 617.448 95.1881 617.277 95.8037 616.901C96.3844 616.547 97.0894 616.074 97.8901 615.505C99.4896 614.371 101.396 612.911 103.323 611.388C106.832 608.615 110.343 605.685 112.078 604.237C112.247 604.096 112.399 603.969 112.533 603.858C112.533 603.858 112.535 603.856 112.545 603.847C112.56 603.832 112.589 603.803 112.633 603.754C112.701 603.678 112.787 603.574 112.893 603.436C113.105 603.159 113.361 602.789 113.659 602.325C114.254 601.399 114.966 600.177 115.757 598.742C117.336 595.875 119.18 592.251 120.956 588.637C122.729 585.028 124.426 581.448 125.709 578.678C126.351 577.293 126.888 576.115 127.278 575.24C127.474 574.802 127.63 574.444 127.744 574.178C127.801 574.044 127.845 573.938 127.877 573.86C127.906 573.787 127.917 573.758 127.917 573.758L127.916 573.762C128.293 572.631 130.371 565.081 131.383 561.368L132.168 558.491L140.493 564.894H146.129L153.864 550.789L157.326 516.665L162.843 474.033L168.359 450.967L168.368 450.929L171.885 434.848L175.39 424.834L178.252 412.67L188.108 423.839L189.106 424.438L192.073 421.894H193.942L194.828 408.607L199.411 388.237L204.772 376.978L210.848 373.434L216.382 363.874L221.249 361.44L224.456 353.652L224.464 353.633L227.313 346.509V341.336L224.895 340.53L220.813 332.367V326.509L222.888 321.322L224.313 314.196V312.555L222.282 311.394H220.402L212.352 307.944L210.313 303.867V298.294L208.24 293.319L201.609 289.749L200.215 284.637L196.521 283.965L194.863 284.628L190.83 288.085L184.313 286.456V274.066L191.116 267.263L194.482 259.087L198.478 250.597L201.434 243.206L203.313 237.57V227.416L208.107 223.688L208.813 221.57V191.729L209.813 185.729V177.213L207.171 176.081L203.759 172.669L203.243 171.894H201.813V167.894H205.827L204.813 165.867V159.324L208.187 157.075L208.813 155.509V149.808L209.813 138.308V131.209L211.367 122.921L212.813 118.101V115.17L215.458 111.996L217.313 103.186V78.2947L218.313 68.2946V53.2749L219.813 40.7749V34.2571L218.313 30.2571V14.7535L221.237 10.66L224.629 6.70235L228.375 5.29753L229.024 4L232.602 5.78885Z"/>
</mask>
<path fill-rule="evenodd" clip-rule="evenodd" d="M215.231 306.737L212.093 304.873L211.313 306.188V308.014L208.843 313.838L208.313 320.978V325.06L210.611 328.285L216.447 329.76L219.68 330.148L222.334 331.638L224.292 328.15L220.946 326.272L217.179 325.819L213.015 324.767L212.313 323.781V321.126L212.783 314.793L215.313 308.827V307.286L215.533 306.915L215.313 306.785V306.737H215.231Z" fill="#DB2828"/>
<path fill-rule="evenodd" clip-rule="evenodd" d="M232.602 5.78885L231.251 8.49132L226.997 10.0865L224.389 13.1288L222.313 16.0354V29.5317L223.813 33.5318V41.014L222.313 53.514V68.4942L221.313 78.4942V103.603L219.168 113.793L216.813 116.619V118.688L215.259 123.867L213.813 131.58V138.481L212.813 149.981V156.28L211.439 159.714L208.813 161.465V164.922L210.747 168.789L208.141 171.394L209.455 172.708L213.813 174.576V186.06L212.813 192.06V222.219L211.519 226.101L207.313 229.373V238.219L205.192 244.583L202.148 252.192L198.144 260.701L194.51 269.526L188.313 275.723V283.333L189.796 283.704L192.763 281.16L196.105 279.824L203.411 281.152L205.017 287.04L211.386 290.47L214.313 297.494V302.922L215.274 304.845L221.224 307.394H223.344L228.313 310.234V314.592L226.738 322.467L224.813 327.28V331.422L227.731 337.259L231.313 338.453V347.28L228.166 355.147L224.377 364.348L219.244 366.915L213.778 376.355L207.854 379.811L203.215 389.552L198.798 409.182L197.684 425.894H193.553L189.52 429.351L185.518 426.95L180.374 421.119L179.236 425.955L175.741 435.94L172.263 451.841L166.783 474.756L161.303 517.096L161.296 517.151L157.762 552L148.497 568.894H139.133L134.455 565.296C133.403 569.127 132.04 574.037 131.71 575.027C131.609 575.331 131.307 576.029 130.932 576.869C130.531 577.767 129.986 578.964 129.339 580.36C128.044 583.154 126.334 586.761 124.546 590.401C122.759 594.038 120.884 597.726 119.26 600.672C118.449 602.143 117.689 603.453 117.024 604.487C116.411 605.441 115.738 606.394 115.093 606.931C114.961 607.041 114.809 607.168 114.64 607.309C112.908 608.755 109.357 611.718 105.803 614.526C103.855 616.066 101.886 617.574 100.205 618.768C99.3647 619.364 98.5776 619.894 97.8887 620.315C97.2348 620.714 96.549 621.091 95.9455 621.292C93.8515 621.99 92.2356 621.599 90.8982 621.177C90.7118 621.118 90.5336 621.06 90.3611 621.004C89.3204 620.665 88.4873 620.394 87.313 620.394C87.3629 620.394 87.1794 620.395 86.6759 620.66C86.2142 620.903 85.6439 621.283 84.9735 621.795C83.6333 622.821 82.0897 624.226 80.4962 625.726C80.0488 626.147 79.5959 626.577 79.1445 627.006C78.023 628.071 76.9111 629.126 75.9173 630.012C75.2153 630.638 74.533 631.215 73.9087 631.677C73.3241 632.11 72.6364 632.561 71.9455 632.792C70.0616 633.42 68.4518 633.889 67.4826 634.154L63.006 639.974L56.6022 652.289L44.5085 677.484L37.9474 685.357L36.687 684.097L35.671 687.145L24.626 710.239L24.6173 710.257L7.626 746.739L4 745.05L21.0043 708.541L31.955 685.644L34.939 676.692L37.6786 679.432L41.1175 675.305L53.0238 650.5L59.6201 637.815L65.1523 630.623L65.8279 630.454C66.4401 630.301 68.3242 629.783 70.6805 628.997C70.6779 628.998 70.6985 628.991 70.745 628.969C70.7907 628.947 70.8521 628.914 70.9303 628.868C71.0889 628.774 71.2874 628.641 71.5278 628.463C72.011 628.105 72.5904 627.619 73.2556 627.026C74.2001 626.185 75.2387 625.198 76.3395 624.153C76.8011 623.715 77.2737 623.266 77.7548 622.813C79.3488 621.313 81.024 619.781 82.5431 618.618C83.3024 618.038 84.072 617.511 84.8115 617.121C85.5091 616.754 86.3881 616.394 87.313 616.394C89.1678 616.394 90.6162 616.873 91.6621 617.219C91.8179 617.27 91.9648 617.319 92.1028 617.362C93.1404 617.69 93.7745 617.799 94.6805 617.497C94.827 617.448 95.1881 617.277 95.8037 616.901C96.3844 616.547 97.0894 616.074 97.8901 615.505C99.4896 614.371 101.396 612.911 103.323 611.388C106.832 608.615 110.343 605.685 112.078 604.237C112.247 604.096 112.399 603.969 112.533 603.858C112.533 603.858 112.535 603.856 112.545 603.847C112.56 603.832 112.589 603.803 112.633 603.754C112.701 603.678 112.787 603.574 112.893 603.436C113.105 603.159 113.361 602.789 113.659 602.325C114.254 601.399 114.966 600.177 115.757 598.742C117.336 595.875 119.18 592.251 120.956 588.637C122.729 585.028 124.426 581.448 125.709 578.678C126.351 577.293 126.888 576.115 127.278 575.24C127.474 574.802 127.63 574.444 127.744 574.178C127.801 574.044 127.845 573.938 127.877 573.86C127.906 573.787 127.917 573.758 127.917 573.758L127.916 573.762C128.293 572.631 130.371 565.081 131.383 561.368L132.168 558.491L140.493 564.894H146.129L153.864 550.789L157.326 516.665L162.843 474.033L168.359 450.967L168.368 450.929L171.885 434.848L175.39 424.834L178.252 412.67L188.108 423.839L189.106 424.438L192.073 421.894H193.942L194.828 408.607L199.411 388.237L204.772 376.978L210.848 373.434L216.382 363.874L221.249 361.44L224.456 353.652L224.464 353.633L227.313 346.509V341.336L224.895 340.53L220.813 332.367V326.509L222.888 321.322L224.313 314.196V312.555L222.282 311.394H220.402L212.352 307.944L210.313 303.867V298.294L208.24 293.319L201.609 289.749L200.215 284.637L196.521 283.965L194.863 284.628L190.83 288.085L184.313 286.456V274.066L191.116 267.263L194.482 259.087L198.478 250.597L201.434 243.206L203.313 237.57V227.416L208.107 223.688L208.813 221.57V191.729L209.813 185.729V177.213L207.171 176.081L203.759 172.669L203.243 171.894H201.813V167.894H205.827L204.813 165.867V159.324L208.187 157.075L208.813 155.509V149.808L209.813 138.308V131.209L211.367 122.921L212.813 118.101V115.17L215.458 111.996L217.313 103.186V78.2947L218.313 68.2946V53.2749L219.813 40.7749V34.2571L218.313 30.2571V14.7535L221.237 10.66L224.629 6.70235L228.375 5.29753L229.024 4L232.602 5.78885Z" fill="#DB2828"/>
<path fill-rule="evenodd" clip-rule="evenodd" d="M215.231 306.737L212.093 304.873L211.313 306.188V308.014L208.843 313.838L208.313 320.978V325.06L210.611 328.285L216.447 329.76L219.68 330.148L222.334 331.638L224.292 328.15L220.946 326.272L217.179 325.819L213.015 324.767L212.313 323.781V321.126L212.783 314.793L215.313 308.827V307.286L215.533 306.915L215.313 306.785V306.737H215.231Z" stroke="white" stroke-width="8" stroke-linejoin="round" mask="url(#path-1-outside-1_108_17)"/>
<path fill-rule="evenodd" clip-rule="evenodd" d="M232.602 5.78885L231.251 8.49132L226.997 10.0865L224.389 13.1288L222.313 16.0354V29.5317L223.813 33.5318V41.014L222.313 53.514V68.4942L221.313 78.4942V103.603L219.168 113.793L216.813 116.619V118.688L215.259 123.867L213.813 131.58V138.481L212.813 149.981V156.28L211.439 159.714L208.813 161.465V164.922L210.747 168.789L208.141 171.394L209.455 172.708L213.813 174.576V186.06L212.813 192.06V222.219L211.519 226.101L207.313 229.373V238.219L205.192 244.583L202.148 252.192L198.144 260.701L194.51 269.526L188.313 275.723V283.333L189.796 283.704L192.763 281.16L196.105 279.824L203.411 281.152L205.017 287.04L211.386 290.47L214.313 297.494V302.922L215.274 304.845L221.224 307.394H223.344L228.313 310.234V314.592L226.738 322.467L224.813 327.28V331.422L227.731 337.259L231.313 338.453V347.28L228.166 355.147L224.377 364.348L219.244 366.915L213.778 376.355L207.854 379.811L203.215 389.552L198.798 409.182L197.684 425.894H193.553L189.52 429.351L185.518 426.95L180.374 421.119L179.236 425.955L175.741 435.94L172.263 451.841L166.783 474.756L161.303 517.096L161.296 517.151L157.762 552L148.497 568.894H139.133L134.455 565.296C133.403 569.127 132.04 574.037 131.71 575.027C131.609 575.331 131.307 576.029 130.932 576.869C130.531 577.767 129.986 578.964 129.339 580.36C128.044 583.154 126.334 586.761 124.546 590.401C122.759 594.038 120.884 597.726 119.26 600.672C118.449 602.143 117.689 603.453 117.024 604.487C116.411 605.441 115.738 606.394 115.093 606.931C114.961 607.041 114.809 607.168 114.64 607.309C112.908 608.755 109.357 611.718 105.803 614.526C103.855 616.066 101.886 617.574 100.205 618.768C99.3647 619.364 98.5776 619.894 97.8887 620.315C97.2348 620.714 96.549 621.091 95.9455 621.292C93.8515 621.99 92.2356 621.599 90.8982 621.177C90.7118 621.118 90.5336 621.06 90.3611 621.004C89.3204 620.665 88.4873 620.394 87.313 620.394C87.3629 620.394 87.1794 620.395 86.6759 620.66C86.2142 620.903 85.6439 621.283 84.9735 621.795C83.6333 622.821 82.0897 624.226 80.4962 625.726C80.0488 626.147 79.5959 626.577 79.1445 627.006C78.023 628.071 76.9111 629.126 75.9173 630.012C75.2153 630.638 74.533 631.215 73.9087 631.677C73.3241 632.11 72.6364 632.561 71.9455 632.792C70.0616 633.42 68.4518 633.889 67.4826 634.154L63.006 639.974L56.6022 652.289L44.5085 677.484L37.9474 685.357L36.687 684.097L35.671 687.145L24.626 710.239L24.6173 710.257L7.626 746.739L4 745.05L21.0043 708.541L31.955 685.644L34.939 676.692L37.6786 679.432L41.1175 675.305L53.0238 650.5L59.6201 637.815L65.1523 630.623L65.8279 630.454C66.4401 630.301 68.3242 629.783 70.6805 628.997C70.6779 628.998 70.6985 628.991 70.745 628.969C70.7907 628.947 70.8521 628.914 70.9303 628.868C71.0889 628.774 71.2874 628.641 71.5278 628.463C72.011 628.105 72.5904 627.619 73.2556 627.026C74.2001 626.185 75.2387 625.198 76.3395 624.153C76.8011 623.715 77.2737 623.266 77.7548 622.813C79.3488 621.313 81.024 619.781 82.5431 618.618C83.3024 618.038 84.072 617.511 84.8115 617.121C85.5091 616.754 86.3881 616.394 87.313 616.394C89.1678 616.394 90.6162 616.873 91.6621 617.219C91.8179 617.27 91.9648 617.319 92.1028 617.362C93.1404 617.69 93.7745 617.799 94.6805 617.497C94.827 617.448 95.1881 617.277 95.8037 616.901C96.3844 616.547 97.0894 616.074 97.8901 615.505C99.4896 614.371 101.396 612.911 103.323 611.388C106.832 608.615 110.343 605.685 112.078 604.237C112.247 604.096 112.399 603.969 112.533 603.858C112.533 603.858 112.535 603.856 112.545 603.847C112.56 603.832 112.589 603.803 112.633 603.754C112.701 603.678 112.787 603.574 112.893 603.436C113.105 603.159 113.361 602.789 113.659 602.325C114.254 601.399 114.966 600.177 115.757 598.742C117.336 595.875 119.18 592.251 120.956 588.637C122.729 585.028 124.426 581.448 125.709 578.678C126.351 577.293 126.888 576.115 127.278 575.24C127.474 574.802 127.63 574.444 127.744 574.178C127.801 574.044 127.845 573.938 127.877 573.86C127.906 573.787 127.917 573.758 127.917 573.758L127.916 573.762C128.293 572.631 130.371 565.081 131.383 561.368L132.168 558.491L140.493 564.894H146.129L153.864 550.789L157.326 516.665L162.843 474.033L168.359 450.967L168.368 450.929L171.885 434.848L175.39 424.834L178.252 412.67L188.108 423.839L189.106 424.438L192.073 421.894H193.942L194.828 408.607L199.411 388.237L204.772 376.978L210.848 373.434L216.382 363.874L221.249 361.44L224.456 353.652L224.464 353.633L227.313 346.509V341.336L224.895 340.53L220.813 332.367V326.509L222.888 321.322L224.313 314.196V312.555L222.282 311.394H220.402L212.352 307.944L210.313 303.867V298.294L208.24 293.319L201.609 289.749L200.215 284.637L196.521 283.965L194.863 284.628L190.83 288.085L184.313 286.456V274.066L191.116 267.263L194.482 259.087L198.478 250.597L201.434 243.206L203.313 237.57V227.416L208.107 223.688L208.813 221.57V191.729L209.813 185.729V177.213L207.171 176.081L203.759 172.669L203.243 171.894H201.813V167.894H205.827L204.813 165.867V159.324L208.187 157.075L208.813 155.509V149.808L209.813 138.308V131.209L211.367 122.921L212.813 118.101V115.17L215.458 111.996L217.313 103.186V78.2947L218.313 68.2946V53.2749L219.813 40.7749V34.2571L218.313 30.2571V14.7535L221.237 10.66L224.629 6.70235L228.375 5.29753L229.024 4L232.602 5.78885Z" stroke="white" stroke-width="8" stroke-linejoin="round" mask="url(#path-1-outside-1_108_17)"/>
<path fill-rule="evenodd" clip-rule="evenodd" d="M215.231 306.737L212.093 304.873L211.313 306.188V308.014L208.843 313.838L208.313 320.978V325.06L210.611 328.285L216.447 329.76L219.68 330.148L222.334 331.638L224.292 328.15L220.946 326.272L217.179 325.819L213.015 324.767L212.313 323.781V321.126L212.783 314.793L215.313 308.827V307.286L215.533 306.915L215.313 306.785V306.737H215.231Z" fill="#DB2828"/>
<path fill-rule="evenodd" clip-rule="evenodd" d="M232.602 5.78885L231.251 8.49132L226.997 10.0865L224.389 13.1288L222.313 16.0354V29.5317L223.813 33.5318V41.014L222.313 53.514V68.4942L221.313 78.4942V103.603L219.168 113.793L216.813 116.619V118.688L215.259 123.867L213.813 131.58V138.481L212.813 149.981V156.28L211.439 159.714L208.813 161.465V164.922L210.747 168.789L208.141 171.394L209.455 172.708L213.813 174.576V186.06L212.813 192.06V222.219L211.519 226.101L207.313 229.373V238.219L205.192 244.583L202.148 252.192L198.144 260.701L194.51 269.526L188.313 275.723V283.333L189.796 283.704L192.763 281.16L196.105 279.824L203.411 281.152L205.017 287.04L211.386 290.47L214.313 297.494V302.922L215.274 304.845L221.224 307.394H223.344L228.313 310.234V314.592L226.738 322.467L224.813 327.28V331.422L227.731 337.259L231.313 338.453V347.28L228.166 355.147L224.377 364.348L219.244 366.915L213.778 376.355L207.854 379.811L203.215 389.552L198.798 409.182L197.684 425.894H193.553L189.52 429.351L185.518 426.95L180.374 421.119L179.236 425.955L175.741 435.94L172.263 451.841L166.783 474.756L161.303 517.096L161.296 517.151L157.762 552L148.497 568.894H139.133L134.455 565.296C133.403 569.127 132.04 574.037 131.71 575.027C131.609 575.331 131.307 576.029 130.932 576.869C130.531 577.767 129.986 578.964 129.339 580.36C128.044 583.154 126.334 586.761 124.546 590.401C122.759 594.038 120.884 597.726 119.26 600.672C118.449 602.143 117.689 603.453 117.024 604.487C116.411 605.441 115.738 606.394 115.093 606.931C114.961 607.041 114.809 607.168 114.64 607.309C112.908 608.755 109.357 611.718 105.803 614.526C103.855 616.066 101.886 617.574 100.205 618.768C99.3647 619.364 98.5776 619.894 97.8887 620.315C97.2348 620.714 96.549 621.091 95.9455 621.292C93.8515 621.99 92.2356 621.599 90.8982 621.177C90.7118 621.118 90.5336 621.06 90.3611 621.004C89.3204 620.665 88.4873 620.394 87.313 620.394C87.3629 620.394 87.1794 620.395 86.6759 620.66C86.2142 620.903 85.6439 621.283 84.9735 621.795C83.6333 622.821 82.0897 624.226 80.4962 625.726C80.0488 626.147 79.5959 626.577 79.1445 627.006C78.023 628.071 76.9111 629.126 75.9173 630.012C75.2153 630.638 74.533 631.215 73.9087 631.677C73.3241 632.11 72.6364 632.561 71.9455 632.792C70.0616 633.42 68.4518 633.889 67.4826 634.154L63.006 639.974L56.6022 652.289L44.5085 677.484L37.9474 685.357L36.687 684.097L35.671 687.145L24.626 710.239L24.6173 710.257L7.626 746.739L4 745.05L21.0043 708.541L31.955 685.644L34.939 676.692L37.6786 679.432L41.1175 675.305L53.0238 650.5L59.6201 637.815L65.1523 630.623L65.8279 630.454C66.4401 630.301 68.3242 629.783 70.6805 628.997C70.6779 628.998 70.6985 628.991 70.745 628.969C70.7907 628.947 70.8521 628.914 70.9303 628.868C71.0889 628.774 71.2874 628.641 71.5278 628.463C72.011 628.105 72.5904 627.619 73.2556 627.026C74.2001 626.185 75.2387 625.198 76.3395 624.153C76.8011 623.715 77.2737 623.266 77.7548 622.813C79.3488 621.313 81.024 619.781 82.5431 618.618C83.3024 618.038 84.072 617.511 84.8115 617.121C85.5091 616.754 86.3881 616.394 87.313 616.394C89.1678 616.394 90.6162 616.873 91.6621 617.219C91.8179 617.27 91.9648 617.319 92.1028 617.362C93.1404 617.69 93.7745 617.799 94.6805 617.497C94.827 617.448 95.1881 617.277 95.8037 616.901C96.3844 616.547 97.0894 616.074 97.8901 615.505C99.4896 614.371 101.396 612.911 103.323 611.388C106.832 608.615 110.343 605.685 112.078 604.237C112.247 604.096 112.399 603.969 112.533 603.858C112.533 603.858 112.535 603.856 112.545 603.847C112.56 603.832 112.589 603.803 112.633 603.754C112.701 603.678 112.787 603.574 112.893 603.436C113.105 603.159 113.361 602.789 113.659 602.325C114.254 601.399 114.966 600.177 115.757 598.742C117.336 595.875 119.18 592.251 120.956 588.637C122.729 585.028 124.426 581.448 125.709 578.678C126.351 577.293 126.888 576.115 127.278 575.24C127.474 574.802 127.63 574.444 127.744 574.178C127.801 574.044 127.845 573.938 127.877 573.86C127.906 573.787 127.917 573.758 127.917 573.758L127.916 573.762C128.293 572.631 130.371 565.081 131.383 561.368L132.168 558.491L140.493 564.894H146.129L153.864 550.789L157.326 516.665L162.843 474.033L168.359 450.967L168.368 450.929L171.885 434.848L175.39 424.834L178.252 412.67L188.108 423.839L189.106 424.438L192.073 421.894H193.942L194.828 408.607L199.411 388.237L204.772 376.978L210.848 373.434L216.382 363.874L221.249 361.44L224.456 353.652L224.464 353.633L227.313 346.509V341.336L224.895 340.53L220.813 332.367V326.509L222.888 321.322L224.313 314.196V312.555L222.282 311.394H220.402L212.352 307.944L210.313 303.867V298.294L208.24 293.319L201.609 289.749L200.215 284.637L196.521 283.965L194.863 284.628L190.83 288.085L184.313 286.456V274.066L191.116 267.263L194.482 259.087L198.478 250.597L201.434 243.206L203.313 237.57V227.416L208.107 223.688L208.813 221.57V191.729L209.813 185.729V177.213L207.171 176.081L203.759 172.669L203.243 171.894H201.813V167.894H205.827L204.813 165.867V159.324L208.187 157.075L208.813 155.509V149.808L209.813 138.308V131.209L211.367 122.921L212.813 118.101V115.17L215.458 111.996L217.313 103.186V78.2947L218.313 68.2946V53.2749L219.813 40.7749V34.2571L218.313 30.2571V14.7535L221.237 10.66L224.629 6.70235L228.375 5.29753L229.024 4L232.602 5.78885Z" fill="#DB2828"/>
</svg>
